<?xml version="1.0" standalone="no"?>
<!DOCTYPE svg PUBLIC "-//W3C//DTD SVG 20010904//EN"
 "http://www.w3.org/TR/2001/REC-SVG-20010904/DTD/svg10.dtd">
<svg version="1.0" xmlns="http://www.w3.org/2000/svg"
 width="1200.000000pt" height="1200.000000pt" viewBox="0 0 1200.000000 1200.000000"
 preserveAspectRatio="xMidYMid meet">
<metadata>
Created by potrace 1.14, written by Peter Selinger 2001-2017
</metadata>
<g transform="translate(0.000000,1200.000000) scale(0.100000,-0.100000)"
fill="#000000" stroke="none">
<path d="M286 7663 c1 -1611 4 -2948 7 -2973 9 -91 18 -176 23 -202 2 -16 6
-43 9 -60 74 -458 226 -877 461 -1268 73 -121 226 -340 284 -407 14 -16 52
-60 84 -98 119 -139 286 -298 501 -474 107 -87 360 -248 530 -337 238 -123
590 -257 765 -290 14 -3 39 -9 55 -14 34 -10 218 -45 285 -54 25 -3 54 -8 65
-10 11 -2 56 -7 100 -11 44 -4 91 -9 105 -11 32 -5 441 -4 495 1 219 21 251
25 395 51 550 101 1051 321 1499 662 295 224 607 554 787 832 16 25 31 47 34
50 6 6 13 17 88 145 234 398 388 843 451 1305 19 139 25 232 36 535 6 157 7
169 36 310 20 97 55 213 86 285 48 114 73 164 121 243 72 121 87 141 190 263
109 129 327 310 432 360 19 10 51 27 70 40 79 51 362 153 471 169 24 4 46 8
49 10 18 11 160 20 310 20 157 0 222 -4 300 -20 14 -2 50 -10 80 -16 94 -18
289 -88 394 -139 182 -91 356 -216 475 -342 19 -21 38 -38 42 -38 3 0 28 21
56 47 27 27 103 98 169 158 65 61 148 138 184 172 36 34 75 70 86 80 21 18
214 197 263 243 33 31 120 112 275 255 66 61 151 140 190 177 l71 67 -110 108
c-61 60 -137 131 -170 158 -33 28 -66 56 -74 63 -22 21 -160 124 -246 184
-279 193 -609 351 -980 468 -140 44 -386 96 -545 116 -30 4 -66 8 -78 10 -191
23 -547 23 -767 0 -332 -36 -695 -130 -1010 -264 -53 -23 -300 -145 -350 -174
-430 -247 -800 -575 -1096 -973 -169 -227 -344 -537 -433 -768 -14 -37 -37
-95 -50 -130 -43 -110 -131 -429 -149 -542 -3 -16 -10 -59 -16 -95 -5 -36 -13
-87 -16 -115 -3 -27 -8 -63 -10 -80 -8 -63 -16 -206 -20 -370 -4 -184 -22
-319 -60 -460 -172 -632 -680 -1117 -1318 -1259 -152 -34 -209 -40 -372 -40
-196 -1 -280 10 -480 58 -5 1 -32 10 -60 18 -378 118 -717 372 -943 709 -44
65 -138 243 -162 304 -4 11 -13 34 -20 50 -41 102 -77 243 -95 375 -3 25 -9
59 -11 75 -3 17 -6 1325 -6 2908 l-1 2877 -882 0 -882 0 3 -2927z"/>
<path d="M3647 8504 c-1 -1 -47 -5 -102 -9 -55 -3 -113 -8 -130 -11 -16 -2
-46 -6 -65 -8 -19 -2 -64 -9 -100 -15 -36 -6 -82 -13 -104 -17 -77 -12 -344
-83 -471 -126 l-130 -44 -3 -1032 c-1 -568 1 -1032 5 -1032 4 0 19 13 33 28
28 32 144 130 212 178 147 107 352 206 527 255 83 23 78 22 136 34 22 4 49 9
60 12 66 13 149 18 295 18 201 0 233 -4 450 -50 8 -2 58 -17 110 -35 305 -100
597 -302 810 -559 36 -43 46 -50 48 -35 12 67 141 425 199 554 22 49 136 277
163 325 116 211 307 482 469 669 23 26 41 52 39 56 -2 4 -34 33 -73 64 -38 31
-77 63 -87 71 -37 30 -209 146 -298 200 -462 282 -998 455 -1550 500 -76 7
-437 14 -443 9z"/>
<path d="M7681 3870 c-36 -137 -135 -406 -207 -558 -24 -52 -44 -96 -44 -98 0
-5 -108 -206 -147 -274 -44 -78 -188 -291 -256 -381 -74 -98 -80 -106 -159
-199 l-57 -67 107 -85 c144 -114 296 -218 441 -301 79 -45 332 -166 421 -202
52 -20 104 -41 115 -45 48 -20 299 -97 342 -106 6 -1 53 -11 105 -23 51 -11
109 -23 128 -26 19 -3 42 -8 50 -10 8 -2 39 -7 69 -10 30 -4 62 -8 71 -10 9
-2 53 -6 96 -10 43 -4 95 -9 114 -11 46 -5 425 -5 470 0 19 2 69 7 110 10 193
16 471 70 655 128 55 17 106 32 112 34 24 4 165 58 235 88 20 9 39 16 43 16 4
0 82 37 173 83 284 142 547 317 767 513 101 90 255 241 255 250 0 3 -26 28
-57 57 -31 29 -71 66 -88 82 -18 17 -81 75 -140 130 -60 55 -123 114 -140 130
-18 17 -81 75 -141 130 -59 55 -122 114 -140 130 -28 27 -207 193 -274 255
-15 14 -76 70 -135 125 -146 135 -168 155 -175 155 -3 0 -26 -21 -50 -46 -194
-199 -508 -379 -790 -453 -68 -18 -110 -26 -235 -47 -65 -10 -334 -12 -405 -3
-168 23 -235 38 -362 79 -129 43 -324 133 -393 182 -5 5 -44 32 -85 61 -42 29
-91 66 -110 83 -53 44 -190 183 -236 239 l-42 50 -11 -45z"/>
</g>
</svg>
