<svg width="234" height="190" viewBox="0 0 234 190" fill="none" xmlns="http://www.w3.org/2000/svg">
<path d="M116.586 179.476C177.661 179.476 227.173 150.89 227.173 115.627C227.173 80.3637 177.661 51.7773 116.586 51.7773C55.5112 51.7773 6 80.3637 6 115.627C6 150.89 55.5112 179.476 116.586 179.476Z" fill="#F3F3F5"/>
<path d="M143.985 133.609L108.594 113.169L149.047 89.8145L184.442 110.25L143.985 133.609Z" fill="#DEDFE4"/>
<path d="M47.6152 127.288L93.2616 153.641L131.548 131.541L85.9014 105.188L47.6152 127.288Z" fill="#DEDFE4"/>
<path d="M181.562 27.6057L155.426 12.5234C155.224 12.3783 154.987 12.2893 154.739 12.2653C154.491 12.2414 154.242 12.2834 154.016 12.3871L152.136 13.4728C151.929 13.6167 151.765 13.8134 151.66 14.0423C151.555 14.2713 151.513 14.5242 151.539 14.7747V86.3134C151.577 87.0104 151.779 87.6886 152.129 88.2929C152.478 88.8972 152.965 89.4106 153.55 89.7914L179.682 104.855C179.884 105.001 180.121 105.091 180.368 105.115C180.616 105.14 180.866 105.099 181.092 104.996L182.972 103.906C183.177 103.761 183.339 103.564 183.442 103.337C183.545 103.109 183.586 102.857 183.56 102.608V31.0837C183.523 30.3878 183.324 29.7104 182.976 29.1061C182.629 28.5019 182.145 27.9878 181.562 27.6057Z" fill="#A3A9B6"/>
<path d="M157.169 87.54L155.289 88.6258V94.5759C155.299 94.7502 155.349 94.9198 155.436 95.0709C155.524 95.222 155.646 95.3503 155.792 95.4454L156.671 95.953C156.827 96.0319 156.999 96.073 157.174 96.073C157.348 96.073 157.521 96.0319 157.677 95.953L158.556 95.4454C158.868 95.2437 159.109 94.9496 159.246 94.6042L160.943 89.7161L157.169 87.54Z" fill="#A3A9B6"/>
<path d="M155.289 94.5762C155.299 94.7504 155.349 94.92 155.436 95.0711C155.524 95.2222 155.646 95.3505 155.792 95.4457L156.671 95.9533C156.732 95.99 156.8 96.0125 156.871 96.0191C156.941 96.0257 157.012 96.0162 157.079 95.9914C157.145 95.9665 157.205 95.9269 157.254 95.8755C157.303 95.8242 157.34 95.7623 157.362 95.6948L159.049 90.8021L155.289 88.626V94.5762Z" fill="#A3A9B6"/>
<path d="M176.025 98.3916L174.145 99.482V105.428C174.153 105.602 174.203 105.772 174.289 105.924C174.376 106.076 174.497 106.205 174.643 106.302L175.526 106.809C175.681 106.888 175.853 106.929 176.027 106.929C176.201 106.929 176.372 106.888 176.527 106.809L177.411 106.302C177.723 106.1 177.965 105.806 178.102 105.46L179.794 100.568L176.025 98.3916Z" fill="#A3A9B6"/>
<path d="M174.145 105.428C174.153 105.603 174.203 105.773 174.289 105.924C174.376 106.076 174.497 106.206 174.643 106.302L175.526 106.81C175.587 106.846 175.655 106.869 175.726 106.876C175.797 106.882 175.868 106.873 175.934 106.848C176.001 106.823 176.061 106.783 176.11 106.732C176.159 106.681 176.196 106.619 176.217 106.551L177.914 101.659L174.154 99.4824L174.145 105.428Z" fill="#A3A9B6"/>
<path d="M153.671 13.6653L179.803 28.7053C180.388 29.0871 180.875 29.6014 181.225 30.2064C181.574 30.8115 181.777 31.4903 181.815 32.188V103.727C181.865 103.978 181.834 104.238 181.729 104.472C181.623 104.705 181.447 104.899 181.225 105.027C181.003 105.155 180.746 105.211 180.492 105.186C180.237 105.161 179.996 105.056 179.803 104.888L153.671 89.8194C153.087 89.4383 152.601 88.9247 152.252 88.3204C151.903 87.7161 151.702 87.0381 151.664 86.3414V14.8215C151.614 14.5706 151.644 14.3104 151.749 14.0773C151.855 13.8443 152.031 13.6502 152.253 13.5225C152.474 13.3948 152.73 13.3399 152.985 13.3655C153.239 13.3911 153.48 13.496 153.671 13.6653Z" fill="#A3A9B6"/>
<path d="M115.725 111.449L143.99 127.767L183.564 104.921L181.68 103.83L153.414 87.5117L115.725 109.273V111.449Z" fill="#B4B9C4"/>
<path d="M143.99 127.767V125.591L183.564 102.744V104.92L143.99 127.767Z" fill="#A3A9B6"/>
<path d="M144.17 124.6L143.883 124.407C148.898 116.817 148.865 103.704 148.456 100.414C148.423 100.193 148.4 100.056 148.395 100.005L148.738 99.9482C148.738 100.052 148.776 100.174 148.794 100.32C149.161 102.646 151.234 115.284 153.687 119.12L153.396 119.308C151.455 116.295 149.795 108.164 148.964 103.473C149.015 108.798 148.24 118.476 144.17 124.6Z" fill="#F9F9FA"/>
<path d="M160.675 113.01C160.247 112.883 150.255 109.856 149.334 105.447L149.677 105.377C150.551 109.583 160.67 112.648 160.774 112.681L160.675 113.01Z" fill="#F9F9FA"/>
<path d="M150.59 111.224L150.336 110.147C150.301 109.95 150.2 109.77 150.05 109.636C149.9 109.503 149.709 109.425 149.509 109.414C149.343 109.39 149.174 109.417 149.025 109.492C148.875 109.567 148.752 109.686 148.672 109.832L148.348 109.696C148.456 109.481 148.629 109.305 148.842 109.192C149.055 109.08 149.298 109.035 149.537 109.066C149.71 109.077 149.878 109.125 150.031 109.206C150.185 109.287 150.319 109.399 150.425 109.536C150.481 109.091 150.709 108.684 151.06 108.404C151.192 108.334 151.341 108.3 151.491 108.305C151.641 108.31 151.787 108.354 151.915 108.432L151.76 108.742C151.682 108.692 151.592 108.662 151.499 108.656C151.406 108.651 151.313 108.669 151.229 108.709C150.829 108.935 150.674 109.804 150.651 110.119L150.59 111.224Z" fill="#F9F9FA"/>
<path d="M151.571 114.809L151.261 113.831C150.908 112.727 150.321 112.092 149.625 112.05C149.335 112.044 149.049 112.124 148.802 112.278C148.556 112.433 148.36 112.655 148.239 112.919L147.924 112.769C148.073 112.439 148.316 112.161 148.623 111.969C148.93 111.777 149.287 111.681 149.649 111.693C150.067 111.716 150.786 111.942 151.322 113.032C151.439 112.172 151.792 110.79 152.699 110.212C153.025 110.034 153.391 109.942 153.762 109.946C154.133 109.951 154.497 110.05 154.819 110.236L154.673 110.551C154.404 110.391 154.098 110.304 153.786 110.297C153.473 110.289 153.163 110.362 152.887 110.508C151.679 111.26 151.599 113.747 151.599 113.775L151.571 114.809Z" fill="#F9F9FA"/>
<path d="M147.328 117.197L147.018 117.037C147.713 115.698 149.241 114.734 150.566 114.8C150.847 114.804 151.124 114.87 151.376 114.994C151.628 115.119 151.849 115.298 152.023 115.519C152.151 114.843 152.414 114.2 152.797 113.628C153.18 113.056 153.674 112.567 154.251 112.192C154.87 111.781 155.584 111.536 156.325 111.481C157.065 111.426 157.808 111.562 158.481 111.877L158.345 112.192C157.725 111.905 157.042 111.781 156.361 111.832C155.68 111.883 155.023 112.107 154.453 112.483C153.843 112.878 153.335 113.41 152.967 114.037C152.6 114.664 152.385 115.368 152.338 116.093V116.981L152.009 116.154C151.9 115.86 151.704 115.606 151.447 115.426C151.19 115.247 150.884 115.15 150.571 115.148C149.353 115.087 147.967 115.971 147.328 117.197Z" fill="#F9F9FA"/>
<path d="M145.419 122.386L145.113 122.217C145.536 121.446 147.788 117.573 150.452 116.873C150.829 116.765 151.223 116.738 151.611 116.794C151.998 116.85 152.369 116.987 152.699 117.197L152.52 117.493C152.229 117.309 151.903 117.188 151.562 117.139C151.221 117.09 150.873 117.113 150.542 117.206C148.587 117.723 146.566 120.318 145.419 122.386Z" fill="#F9F9FA"/>
<path d="M179.795 80.9834V83.1595L143.99 103.83L115.725 87.5117V85.3356L151.529 64.665L179.795 80.9834Z" fill="#A3A9B6"/>
<path d="M179.795 80.9834L143.99 101.654L115.725 85.3356L151.529 64.665L179.795 80.9834Z" fill="#B4B9C4"/>
<path d="M179.795 57.0506V59.222L143.99 79.8974L115.725 63.5742V61.4028L151.529 40.7275L179.795 57.0506Z" fill="#A3A9B6"/>
<path d="M179.795 57.0506L143.99 77.7213L115.725 61.4028L151.529 40.7275L179.795 57.0506Z" fill="#B4B9C4"/>
<path d="M143.868 49.3378L117.736 34.2743C117.534 34.1285 117.297 34.0386 117.05 34.0138C116.802 33.9891 116.552 34.0303 116.326 34.1333C115.987 34.326 114.784 35.0263 114.446 35.219C114.24 35.3635 114.076 35.5604 113.972 35.7893C113.868 36.0182 113.827 36.2708 113.853 36.5209V108.041C113.892 108.738 114.094 109.416 114.444 110.02C114.793 110.625 115.28 111.138 115.865 111.519L141.997 126.587C142.199 126.733 142.435 126.823 142.683 126.848C142.931 126.872 143.181 126.831 143.407 126.728C143.746 126.531 144.958 125.835 145.287 125.633C145.494 125.49 145.659 125.294 145.765 125.066C145.87 124.838 145.913 124.586 145.889 124.336V52.8205C145.85 52.1219 145.647 51.4422 145.296 50.837C144.944 50.2318 144.455 49.7181 143.868 49.3378Z" fill="#A3A9B6"/>
<path opacity="0.2" d="M143.991 60.3168L145.88 59.2264V52.6934L143.986 53.7838L143.991 60.3168Z" fill="#141619"/>
<path opacity="0.2" d="M181.684 38.5562L183.574 37.4705V30.9375L181.68 32.0279L181.684 38.5562Z" fill="#141619"/>
<path d="M119.495 109.272L117.615 110.358V116.308C117.625 116.483 117.675 116.652 117.763 116.803C117.85 116.954 117.972 117.083 118.118 117.178L118.997 117.685C119.153 117.764 119.325 117.805 119.5 117.805C119.675 117.805 119.847 117.764 120.003 117.685L120.882 117.178C121.193 116.977 121.434 116.685 121.573 116.341L123.269 111.449L119.495 109.272Z" fill="#A3A9B6"/>
<path d="M117.609 116.308C117.619 116.482 117.669 116.651 117.757 116.803C117.844 116.954 117.966 117.082 118.112 117.177L118.991 117.685C119.052 117.721 119.12 117.744 119.191 117.751C119.262 117.757 119.333 117.748 119.399 117.723C119.466 117.698 119.526 117.658 119.575 117.607C119.624 117.556 119.66 117.494 119.682 117.426L121.379 112.534L117.619 110.357L117.609 116.308Z" fill="#A3A9B6"/>
<path d="M138.337 120.152L136.457 121.238V127.188C136.466 127.362 136.515 127.532 136.602 127.683C136.688 127.834 136.81 127.962 136.955 128.058L137.839 128.565C137.994 128.644 138.165 128.685 138.339 128.685C138.513 128.685 138.685 128.644 138.84 128.565L139.724 128.058C140.033 127.855 140.274 127.564 140.414 127.221L142.106 122.328L138.337 120.152Z" fill="#A3A9B6"/>
<path d="M136.457 127.165C136.466 127.339 136.515 127.508 136.602 127.66C136.688 127.811 136.81 127.939 136.955 128.035L137.839 128.542C137.9 128.579 137.968 128.601 138.038 128.608C138.109 128.615 138.18 128.605 138.247 128.58C138.313 128.555 138.373 128.516 138.422 128.464C138.471 128.413 138.508 128.351 138.53 128.284L140.222 123.391L136.462 121.215L136.457 127.165Z" fill="#A3A9B6"/>
<path d="M115.847 35.3645L141.984 50.428C142.568 50.8101 143.055 51.3245 143.403 51.9296C143.752 52.5347 143.953 53.2134 143.991 53.9107V127.766C143.991 127.766 142.538 126.906 141.984 126.587L115.852 111.519C115.267 111.138 114.78 110.624 114.43 110.02C114.081 109.416 113.879 108.738 113.84 108.041V36.5207C113.79 36.2699 113.82 36.0096 113.925 35.7765C114.031 35.5435 114.207 35.3494 114.428 35.2217C114.65 35.094 114.906 35.0391 115.161 35.0647C115.415 35.0903 115.655 35.1952 115.847 35.3645Z" fill="#A3A9B6"/>
<path opacity="0.2" d="M141.984 50.428L115.847 35.3645C115.655 35.1952 115.415 35.0903 115.161 35.0647C114.906 35.0391 114.65 35.094 114.428 35.2217C114.207 35.3494 114.031 35.5435 113.925 35.7765C113.82 36.0096 113.79 36.2699 113.84 36.5207V42.908L143.991 60.298V53.9107C143.953 53.2134 143.752 52.5347 143.403 51.9296C143.055 51.3245 142.568 50.8101 141.984 50.428Z" fill="#141619"/>
<path d="M177.91 57.2244C177.864 57.2232 177.821 57.2045 177.788 57.1722C177.756 57.1398 177.737 57.0963 177.736 57.0505V35.5903L157.268 47.4061C157.249 47.4186 157.227 47.4269 157.204 47.4305C157.182 47.4342 157.159 47.4331 157.137 47.4273C157.115 47.4216 157.094 47.4113 157.076 47.3971C157.058 47.383 157.043 47.3652 157.033 47.345C157.021 47.3253 157.013 47.3034 157.01 47.2807C157.006 47.2579 157.008 47.2347 157.013 47.2124C157.019 47.1901 157.029 47.1692 157.043 47.1508C157.057 47.1324 157.074 47.1169 157.094 47.1053L177.849 35.1391C177.875 35.1229 177.905 35.1143 177.936 35.1143C177.967 35.1143 177.997 35.1229 178.023 35.1391C178.049 35.1547 178.07 35.1767 178.085 35.2031C178.1 35.2295 178.108 35.2593 178.108 35.2895V57.0505C178.108 57.0755 178.103 57.1002 178.092 57.123C178.082 57.1458 178.067 57.1661 178.049 57.1826C178.03 57.1991 178.008 57.2114 177.984 57.2186C177.96 57.2258 177.935 57.2278 177.91 57.2244Z" fill="#F9F9FA"/>
<path d="M174.141 51.7827H174.09C174.045 51.7726 174.006 51.7452 173.981 51.7065C173.956 51.6677 173.948 51.6208 173.958 51.5759L177.464 36.3902L170.508 48.4363C170.497 48.4564 170.483 48.4741 170.465 48.4884C170.447 48.5026 170.427 48.5131 170.405 48.5193C170.383 48.5254 170.36 48.5271 170.337 48.5241C170.315 48.5212 170.293 48.5137 170.273 48.5021C170.253 48.4909 170.235 48.4757 170.221 48.4575C170.206 48.4393 170.196 48.4184 170.19 48.3961C170.184 48.3738 170.182 48.3505 170.185 48.3275C170.188 48.3046 170.196 48.2824 170.207 48.2624L177.727 35.2058C177.749 35.17 177.782 35.1428 177.822 35.1291C177.861 35.1153 177.904 35.1159 177.944 35.1306C177.982 35.1464 178.014 35.1754 178.033 35.2125C178.052 35.2496 178.057 35.2923 178.047 35.3327L174.287 51.6558C174.278 51.6893 174.26 51.7194 174.234 51.7421C174.208 51.7648 174.176 51.779 174.141 51.7827Z" fill="#F9F9FA"/>
<path d="M166.607 46.3633C166.583 46.3634 166.559 46.3584 166.537 46.3487C166.515 46.339 166.496 46.3247 166.48 46.3069C166.448 46.2744 166.43 46.2304 166.43 46.1847C166.43 46.139 166.448 46.0951 166.48 46.0625L177.788 35.182C177.821 35.1499 177.865 35.1318 177.91 35.1318C177.956 35.1318 178 35.1499 178.032 35.182C178.065 35.2154 178.083 35.26 178.083 35.3066C178.083 35.3531 178.065 35.3978 178.032 35.4311L166.724 46.3069C166.709 46.3236 166.691 46.3372 166.671 46.3469C166.651 46.3566 166.629 46.3621 166.607 46.3633Z" fill="#F9F9FA"/>
<path d="M177.911 53.7511C177.865 53.7499 177.821 53.7312 177.789 53.6988C177.757 53.6665 177.738 53.6229 177.737 53.5772C177.737 50.729 174.56 50.5363 174.423 50.5316C174.398 50.5297 174.373 50.5225 174.35 50.5103C174.327 50.4982 174.307 50.4814 174.292 50.4611C174.277 50.4411 174.267 50.4181 174.262 50.3937C174.257 50.3693 174.258 50.3442 174.264 50.3201C174.379 49.7382 174.34 49.1361 174.15 48.5742C173.959 48.0124 173.624 47.5106 173.178 47.1194C173.015 46.9567 172.819 46.8307 172.603 46.7497C172.388 46.6686 172.157 46.6344 171.928 46.6494C171.805 46.6701 171.688 46.717 171.585 46.7867C171.482 46.8564 171.396 46.9474 171.331 47.0536C171.311 47.0879 171.28 47.1145 171.244 47.129C171.207 47.1435 171.166 47.1451 171.129 47.1335C171.091 47.1219 171.059 47.0979 171.036 47.0655C171.014 47.0331 171.004 46.9941 171.006 46.9549C171.006 46.8468 171.199 44.3135 168.971 44.0644C168.943 44.0609 168.915 44.0505 168.892 44.0341C168.868 44.0178 168.848 43.9959 168.835 43.9704C168.822 43.9457 168.816 43.9183 168.816 43.8905C168.816 43.8627 168.822 43.8353 168.835 43.8106C168.835 43.8106 169.822 41.9635 169.441 41.0564C169.397 40.9499 169.329 40.8552 169.242 40.7801C169.154 40.7049 169.05 40.6515 168.938 40.624C168.916 40.6181 168.895 40.6077 168.877 40.5935C168.859 40.5792 168.844 40.5615 168.833 40.5412C168.822 40.521 168.815 40.4987 168.813 40.4757C168.811 40.4528 168.814 40.4297 168.821 40.4078C168.835 40.3642 168.865 40.3277 168.906 40.3059C168.946 40.284 168.993 40.2784 169.037 40.2903C169.199 40.3319 169.349 40.411 169.475 40.5213C169.6 40.6315 169.698 40.7697 169.761 40.9248C170.123 41.7849 169.512 43.209 169.249 43.7448C170.978 44.0785 171.298 45.7094 171.345 46.5178C171.499 46.408 171.676 46.3327 171.862 46.2969C172.144 46.2695 172.429 46.3065 172.695 46.405C172.962 46.5034 173.202 46.6609 173.399 46.8656C173.866 47.2774 174.223 47.7988 174.439 48.3828C174.655 48.9669 174.722 49.5954 174.635 50.212C175.396 50.3107 178.085 50.8418 178.08 53.5866C178.078 53.6302 178.059 53.6714 178.027 53.7019C177.996 53.7324 177.954 53.7499 177.911 53.7511Z" fill="#F9F9FA"/>
<path d="M177.91 49.061C177.867 49.0611 177.824 49.0448 177.792 49.0151C177.76 48.9855 177.74 48.9448 177.736 48.9012C177.661 47.9048 177.083 46.617 176.355 46.2974C176.21 46.2329 176.05 46.2119 175.894 46.2369C175.738 46.262 175.593 46.332 175.476 46.4384C175.447 46.4568 175.414 46.4666 175.379 46.4666C175.345 46.4666 175.312 46.4568 175.283 46.4384C175.253 46.422 175.229 46.3972 175.213 46.3672C175.197 46.3371 175.19 46.303 175.194 46.2692C175.194 46.2692 175.349 44.5067 174.555 43.7782C174.382 43.6343 174.178 43.5336 173.959 43.4846C173.74 43.4355 173.512 43.4395 173.295 43.4962C173.265 43.5025 173.234 43.5007 173.205 43.4907C173.176 43.4808 173.15 43.4632 173.13 43.4398C173.11 43.4162 173.097 43.3877 173.091 43.3572C173.085 43.3267 173.087 43.2952 173.098 43.2659C173.257 42.8288 173.568 41.6021 173.149 41.165C172.952 40.9629 172.59 40.9441 172.068 41.1133C172.033 41.1251 171.994 41.125 171.959 41.1132C171.923 41.1013 171.892 41.0783 171.871 41.0475C171.849 41.0173 171.838 40.9811 171.838 40.9441C171.838 40.907 171.849 40.8709 171.871 40.8407C172.162 40.4741 172.881 39.4025 172.703 38.8902C172.673 38.8194 172.626 38.7578 172.564 38.7115C172.503 38.6653 172.431 38.6361 172.355 38.627C172.333 38.6215 172.312 38.6116 172.293 38.598C172.275 38.5844 172.259 38.5673 172.248 38.5476C172.236 38.528 172.228 38.5062 172.225 38.4835C172.221 38.4608 172.222 38.4377 172.228 38.4155C172.232 38.3931 172.241 38.3718 172.254 38.3531C172.267 38.3343 172.284 38.3185 172.304 38.3065C172.323 38.2946 172.345 38.2868 172.367 38.2837C172.39 38.2807 172.413 38.2823 172.435 38.2886C172.567 38.3078 172.691 38.3613 172.796 38.4438C172.901 38.5263 172.982 38.6348 173.032 38.7586C173.224 39.3179 172.754 40.1686 172.425 40.6386C172.595 40.5983 172.772 40.5999 172.94 40.6433C173.109 40.6867 173.265 40.7706 173.394 40.8877C173.911 41.4235 173.662 42.5562 173.506 43.0873C173.736 43.0599 173.968 43.0813 174.188 43.1502C174.409 43.219 174.612 43.3338 174.785 43.4868C175.485 44.126 175.56 45.3668 175.551 45.9355C175.698 45.8663 175.858 45.8305 176.021 45.8305C176.183 45.8305 176.344 45.8663 176.491 45.9355C177.379 46.3256 177.995 47.7121 178.084 48.8354C178.086 48.858 178.084 48.8808 178.077 48.9023C178.069 48.9239 178.058 48.9438 178.043 48.9609C178.028 48.978 178.01 48.9919 177.99 49.0019C177.969 49.0118 177.947 49.0175 177.924 49.0187L177.91 49.061Z" fill="#F9F9FA"/>
<path d="M188.035 27.676C188.013 27.4265 187.924 27.1874 187.779 26.9833C187.634 26.7793 187.436 26.6177 187.208 26.5151L159.191 10.3377C158.568 10.0226 157.88 9.8584 157.182 9.8584C156.484 9.8584 155.796 10.0226 155.173 10.3377L112.083 35.2195C111.854 35.3221 111.657 35.4837 111.512 35.6877C111.367 35.8918 111.278 36.1309 111.256 36.3804V38.5565C111.278 38.8061 111.367 39.0452 111.512 39.2492C111.657 39.4532 111.854 39.6149 112.083 39.7174L140.1 55.8901C140.722 56.2075 141.411 56.3729 142.109 56.3729C142.807 56.3729 143.496 56.2075 144.118 55.8901L187.208 31.013C187.436 30.9105 187.634 30.7488 187.779 30.5448C187.924 30.3408 188.013 30.1017 188.035 29.8521V27.676Z" fill="#A3A9B6"/>
<path d="M140.099 53.714L112.082 37.5413C110.973 36.8974 110.973 35.8587 112.082 35.2195L155.172 10.3377C155.794 10.0226 156.483 9.8584 157.181 9.8584C157.879 9.8584 158.567 10.0226 159.19 10.3377L187.207 26.5151C188.321 27.159 188.321 28.193 187.207 28.8369L144.117 53.714C143.495 54.0313 142.806 54.1968 142.108 54.1968C141.409 54.1968 140.721 54.0313 140.099 53.714Z" fill="#B4B9C4"/>
<path opacity="0.1" d="M181.68 34.1992L168.491 50.5223L145.88 63.5789L145.875 54.8745L181.68 34.1992Z" fill="#141619"/>
<path opacity="0.1" d="M179.794 59.2217L168.491 74.4544L145.879 87.5157V78.8066L179.794 59.2217Z" fill="#141619"/>
<path opacity="0.1" d="M179.794 83.1592L168.491 98.3919L145.879 111.453V102.744L179.794 83.1592Z" fill="#141619"/>
<path d="M127.926 130.701L93.2589 150.718L54.2207 128.125L88.8879 108.112L127.926 130.701Z" fill="#868EA0"/>
<path opacity="0.5" d="M127.926 130.701L93.2589 150.718L54.2207 128.125L88.8879 108.112L127.926 130.701Z" fill="#141619"/>
<path d="M88.8879 80.9795V108.113L54.2207 128.125V100.997L88.8879 80.9795Z" fill="#868EA0"/>
<path opacity="0.23" d="M88.8879 80.9795V108.113L54.2207 128.125V100.997L88.8879 80.9795Z" fill="#141619"/>
<path d="M93.2589 123.585V150.718L54.2207 128.125V100.997L93.2589 123.585Z" fill="#868EA0"/>
<path opacity="0.38" d="M93.2589 123.585V150.718L54.2207 128.125V100.997L93.2589 123.585Z" fill="#141619"/>
<path d="M127.925 103.568V130.701L88.8867 108.113V80.9795L127.925 103.568Z" fill="#868EA0"/>
<path opacity="0.4" d="M127.925 103.568V130.701L88.8867 108.113V80.9795L127.925 103.568Z" fill="#141619"/>
<path d="M127.925 130.7V103.567L93.2578 123.585V150.718L127.925 130.7Z" fill="#868EA0"/>
<path opacity="0.23" d="M127.925 130.7V103.567L93.2578 123.585V150.718L127.925 130.7Z" fill="#141619"/>
<path d="M88.8867 80.9792L88.9337 65.958L127.878 88.5744L127.925 103.567L88.8867 80.9792Z" fill="#868EA0"/>
<path opacity="0.2" d="M88.8867 80.9792L88.9337 65.958L127.878 88.5744L127.925 103.567L88.8867 80.9792Z" fill="#141619"/>
<path d="M93.2578 123.585L96.5102 110.443L130.862 90.6094L127.925 103.567L93.2578 123.585Z" fill="#868EA0"/>
<path opacity="0.3" d="M93.2578 123.585L96.5102 110.443L130.862 90.6094L127.925 103.567L93.2578 123.585Z" fill="#141619"/>
<path d="M54.22 100.997L50.084 87.3671L84.7512 67.3545L88.8872 80.9798L54.22 100.997Z" fill="#868EA0"/>
<path opacity="0.1" d="M54.22 100.997L50.084 87.3671L84.7512 67.3545L88.8872 80.9798L54.22 100.997Z" fill="#141619"/>
<path d="M54.2197 100.996L46.0605 89.7305L85.1035 112.319L93.258 123.585L54.2197 100.996Z" fill="#868EA0"/>
<path opacity="0.45" d="M54.2197 100.996L46.0605 89.7305L85.1035 112.319L93.258 123.585L54.2197 100.996Z" fill="#141619"/>
<g opacity="0.7">
<path d="M103.468 142.648C103.412 142.648 103.357 142.626 103.317 142.587C103.277 142.547 103.253 142.493 103.252 142.437V137.662C103.253 137.605 103.276 137.55 103.317 137.51C103.357 137.47 103.411 137.447 103.468 137.445C103.525 137.447 103.578 137.47 103.618 137.51C103.658 137.551 103.68 137.605 103.68 137.662V142.437C103.68 142.493 103.657 142.547 103.618 142.586C103.578 142.626 103.524 142.648 103.468 142.648Z" fill="white"/>
<path d="M102.842 139.315C102.814 139.32 102.785 139.32 102.757 139.315C102.706 139.292 102.666 139.249 102.645 139.197C102.624 139.144 102.624 139.086 102.644 139.033L103.406 137.28L104.252 138.258C104.282 138.302 104.295 138.355 104.289 138.408C104.282 138.461 104.256 138.509 104.216 138.544C104.176 138.579 104.124 138.598 104.071 138.597C104.018 138.596 103.967 138.576 103.928 138.54L103.528 138.07L103.058 139.198C103.038 139.237 103.006 139.269 102.968 139.29C102.929 139.31 102.885 139.319 102.842 139.315Z" fill="white"/>
<path d="M105.436 141.524C105.38 141.523 105.326 141.5 105.286 141.459C105.247 141.419 105.225 141.365 105.225 141.308V136.538C105.225 136.482 105.247 136.428 105.287 136.388C105.326 136.348 105.38 136.326 105.436 136.326C105.492 136.326 105.546 136.348 105.586 136.388C105.625 136.428 105.648 136.482 105.648 136.538V141.303C105.648 141.332 105.643 141.36 105.633 141.387C105.623 141.413 105.607 141.437 105.588 141.458C105.568 141.478 105.544 141.495 105.518 141.506C105.492 141.518 105.465 141.524 105.436 141.524Z" fill="white"/>
<path d="M104.811 138.192C104.783 138.197 104.755 138.197 104.727 138.192C104.701 138.181 104.678 138.165 104.658 138.145C104.639 138.124 104.624 138.1 104.614 138.074C104.604 138.048 104.599 138.02 104.6 137.992C104.601 137.964 104.607 137.936 104.619 137.91L105.375 136.134L106.221 137.107C106.261 137.147 106.282 137.201 106.282 137.257C106.282 137.313 106.261 137.367 106.221 137.407C106.202 137.427 106.178 137.443 106.153 137.454C106.127 137.465 106.099 137.47 106.071 137.47C106.043 137.47 106.015 137.465 105.99 137.454C105.964 137.443 105.94 137.427 105.921 137.407L105.521 136.937L105.051 138.065C105.032 138.111 104.997 138.148 104.954 138.171C104.91 138.194 104.86 138.202 104.811 138.192Z" fill="white"/>
</g>
<g opacity="0.7">
<path d="M97.785 145.886C97.7046 145.887 97.6253 145.868 97.5547 145.83C97.4697 145.775 97.4009 145.699 97.3554 145.609C97.3099 145.519 97.2895 145.418 97.2962 145.317V144.73C97.2974 144.673 97.3207 144.62 97.3611 144.58C97.4015 144.54 97.4558 144.518 97.5124 144.518C97.5685 144.518 97.6223 144.541 97.6619 144.58C97.7016 144.62 97.7239 144.674 97.7239 144.73V145.317C97.7239 145.402 97.7239 145.449 97.7662 145.458C97.8085 145.468 97.832 145.458 97.9025 145.421C98.0347 145.299 98.139 145.149 98.2079 144.983C98.2769 144.817 98.309 144.637 98.302 144.457V142.013C98.302 141.957 98.3242 141.903 98.3639 141.864C98.4036 141.824 98.4574 141.802 98.5135 141.802C98.5695 141.802 98.6233 141.824 98.663 141.864C98.7027 141.903 98.7249 141.957 98.7249 142.013V144.457C98.7355 144.711 98.686 144.964 98.5807 145.195C98.4754 145.426 98.3171 145.629 98.1187 145.787C98.0182 145.849 97.903 145.883 97.785 145.886Z" fill="white"/>
<path d="M95.543 143.917V143.55C95.5988 142.609 95.874 141.694 96.3465 140.878C96.819 140.062 97.4757 139.368 98.2643 138.85C99.0351 138.409 99.7683 138.343 100.332 138.672C100.633 138.878 100.873 139.161 101.027 139.492C101.181 139.823 101.243 140.189 101.206 140.552V140.674L95.543 143.917ZM99.5427 138.869C99.1663 138.887 98.8007 139 98.4805 139.198C97.8047 139.643 97.2326 140.228 96.8028 140.913C96.373 141.598 96.0956 142.368 95.9895 143.17L100.769 140.406C100.79 140.134 100.739 139.861 100.623 139.614C100.507 139.367 100.329 139.154 100.107 138.996C99.933 138.905 99.7385 138.861 99.5427 138.869Z" fill="white"/>
</g>
<path opacity="0.7" d="M46.0605 89.7305L85.1035 112.319L93.258 123.585L84.6711 112.718L46.0605 89.7305Z" fill="white"/>
<path opacity="0.7" d="M127.925 103.567L93.2578 123.585V150.718L93.9064 124.13L127.925 103.567Z" fill="white"/>
<path d="M77.0512 92.7144C80.6279 92.1974 83.8944 89.8944 85.9812 86.9992C86.9543 85.6464 87.6712 84.1267 88.0962 82.5154C88.5475 81.0086 88.6217 79.414 88.3124 77.8718C87.6685 75.2915 85.2809 73.764 82.757 73.4444C81.4763 73.2759 80.174 73.4029 78.95 73.8157C77.6808 74.2512 76.5797 75.0729 75.801 76.1657C75.3127 76.7478 75.0055 77.4602 74.9174 78.2148C74.9099 78.5104 75.0141 78.798 75.2092 79.0201C75.4044 79.2423 75.6761 79.3827 75.9702 79.4134C76.727 79.4771 77.4833 79.2851 78.1181 78.8682C78.8921 78.4341 79.5739 77.8529 80.125 77.1573C81.3072 75.6984 82.1918 74.0217 82.7288 72.2223C83.1056 70.6783 83.1056 69.0664 82.7288 67.5224C82.4425 65.9072 81.7043 64.4063 80.5997 63.1936C79.3333 62.042 77.7263 61.3342 76.0219 61.1774C74.3255 60.9443 72.5983 61.1051 70.9741 61.6474C70.2607 61.8636 69.5998 62.2253 69.033 62.7095C68.6288 63.0856 68.1682 63.7059 68.3327 64.3169C68.4972 64.9279 69.3902 65.2006 69.9965 65.1207C70.8938 64.9525 71.7157 64.507 72.3465 63.8469C73.0494 63.155 73.6465 62.3631 74.1184 61.4969C74.469 60.8745 74.652 60.1716 74.6495 59.4572C74.5884 56.4773 71.2937 54.5503 68.7134 54.0051C68.0168 53.8596 67.3034 53.8122 66.5937 53.8642C66.354 53.8642 66.4997 54.259 66.6924 54.2449C68.0809 54.1818 69.4608 54.4934 70.6874 55.1473C71.8975 55.7035 72.9139 56.6085 73.6061 57.7464C73.9146 58.3073 74.0668 58.9408 74.047 59.5807C74.0271 60.2205 73.8359 60.8434 73.4933 61.3842C73.0331 62.1857 72.4601 62.917 71.7919 63.5556C71.2326 64.0632 70.3819 64.6506 69.597 64.5942C69.4674 64.594 69.3405 64.5572 69.2308 64.4882C69.1211 64.4193 69.033 64.3208 68.9766 64.2042C68.9529 64.0498 68.9656 63.8921 69.0138 63.7436C69.0619 63.595 69.1441 63.4598 69.2539 63.3488C69.6689 62.9018 70.1822 62.5575 70.7532 62.343C72.1632 61.7568 73.69 61.5058 75.2135 61.6098C76.7835 61.6382 78.3104 62.1286 79.6033 63.0198C80.7296 63.9549 81.5295 65.2239 81.8875 66.6434C82.3409 68.0855 82.4819 69.6076 82.3011 71.1084C82.022 72.6186 81.4417 74.0572 80.595 75.3385C79.7255 76.7767 78.6351 78.1585 76.9995 78.7225C76.5953 78.8682 75.7493 79.0796 75.5895 78.4921C75.4297 77.9046 75.8903 77.1809 76.1864 76.725C76.8411 75.6945 77.7957 74.8891 78.9218 74.4173C80.0084 73.9817 81.1813 73.8047 82.3481 73.9003C84.5618 74.0648 86.8084 75.2209 87.5792 77.4205C87.9658 78.7351 88.0079 80.127 87.7014 81.4626C87.4249 82.9264 86.8986 84.3319 86.1457 85.6174C84.526 88.3487 82.0732 90.4886 79.1474 91.7227C78.4518 92.0235 77.7374 92.2773 77.0089 92.5123C76.9337 92.5405 76.9666 92.7285 77.0512 92.7144Z" fill="#DEDFE4"/>
<path d="M62.1098 51.9092C60.2298 51.7729 57.6401 53.2534 58.5613 54.3344C59.4825 55.4154 61.9265 53.6669 61.9265 53.6669C61.9265 53.6669 61.6962 55.8525 62.4952 56.1016C63.2942 56.3507 64.3752 54.2639 63.5762 52.9291C63.9615 53.081 64.379 53.133 64.7898 53.0805C65.2007 53.0279 65.5916 52.8723 65.9262 52.6283C67.0636 51.7917 65.8604 51.002 64.2577 51.143C64.2577 51.143 65.4045 47.383 63.0874 48.1021C61.9265 48.4546 61.5176 49.813 62.1098 51.9092Z" fill="#A3A9B6"/>
<path opacity="0.65" d="M62.1098 51.9092C60.2298 51.7729 57.6401 53.2534 58.5613 54.3344C59.4825 55.4154 61.9265 53.6669 61.9265 53.6669C61.9265 53.6669 61.6962 55.8525 62.4952 56.1016C63.2942 56.3507 64.3752 54.2639 63.5762 52.9291C63.9615 53.081 64.379 53.133 64.7898 53.0805C65.2007 53.0279 65.5916 52.8723 65.9262 52.6283C67.0636 51.7917 65.8604 51.002 64.2577 51.143C64.2577 51.143 65.4045 47.383 63.0874 48.1021C61.9265 48.4546 61.5176 49.813 62.1098 51.9092Z" fill="white"/>
<path d="M63.857 52.7088C63.753 52.6069 63.6432 52.5112 63.528 52.4221C63.3635 52.2952 63.1896 52.173 63.0251 52.0508C62.865 51.9343 62.6969 51.8291 62.5222 51.7359C62.4217 51.6801 62.3181 51.6299 62.212 51.5855C62.0656 51.5167 61.9027 51.4906 61.742 51.5103C61.6999 51.5115 61.6589 51.5239 61.6233 51.5464C61.5877 51.5689 61.5588 51.6005 61.5396 51.6379C61.5203 51.6754 61.5116 51.7174 61.5141 51.7594C61.5166 51.8014 61.5304 51.842 61.554 51.8769C61.6832 52.0168 61.8445 52.1233 62.024 52.1871L62.2778 52.3234C62.4517 52.4268 62.6068 52.5443 62.7478 52.6618C62.8888 52.7793 63.0768 52.8921 63.2178 53.0096C63.4603 53.2062 63.7313 53.3647 64.0215 53.4796C64.0345 53.4865 64.0491 53.4902 64.0638 53.4902C64.0786 53.4902 64.0931 53.4865 64.1061 53.4796C64.3458 53.2916 63.9933 52.8451 63.857 52.7088Z" fill="#B4B9C4"/>
</svg>
