<svg height="20" viewBox="0 0 20 20" width="20" xmlns="http://www.w3.org/2000/svg">
	<rect fill="var(--color, currentcolor)" height="3.994872" rx="1.024772" width="3.994872" x=".212292" y=".229505"/>
	<path d="m9.0199798 15.775623h1.9453282c.567724 0 1.024772.457048 1.024772 1.024772v1.945328c0 .567724-.457048 1.024772-1.024772 1.024772h-1.9453282c-.5677234 0-1.0247715-.457048-1.0247715-1.024772v-1.945328c0-.567724.4570481-1.024772 1.0247715-1.024772zm.014713-7.7730586h1.9453284c.567724 0 1.024772.4570482 1.024772 1.0247716v1.945328c0 .567724-.457048 1.024772-1.024772 1.024772h-1.9453286c-.5677234 0-1.0247715-.457048-1.0247715-1.024772v-1.945328c0-.5677234.4570481-1.0247716 1.0247715-1.0247716zm0-7.77305956h1.9453284c.567724 0 1.024772.45704812 1.024772 1.02477156v1.9453285c0 .5677234-.457048 1.0247716-1.024772 1.0247716h-1.9453286c-.5677234 0-1.0247715-.4570482-1.0247715-1.0247716v-1.9453285c0-.56772344.4570481-1.02477156 1.0247715-1.02477156zm7.7829142 15.54611816h1.945328c.567724 0 1.024772.457048 1.024772 1.024772v1.945328c0 .567724-.457048 1.024772-1.024772 1.024772h-1.945328c-.567724 0-1.024772-.457048-1.024772-1.024772v-1.945328c0-.567724.457048-1.024772 1.024772-1.024772zm.01471-7.7730586h1.945329c.567723 0 1.024771.4570482 1.024771 1.0247716v1.945328c0 .567724-.457048 1.024772-1.024771 1.024772h-1.945329c-.567723 0-1.024772-.457048-1.024772-1.024772v-1.945328c0-.5677234.457049-1.0247716 1.024772-1.0247716zm0-7.77305956h1.945329c.567723 0 1.024771.45704812 1.024771 1.02477156v1.9453285c0 .5677234-.457048 1.0247716-1.024771 1.0247716h-1.945329c-.567723 0-1.024772-.4570482-1.024772-1.0247716v-1.9453285c0-.56772344.457049-1.02477156 1.024772-1.02477156zm-15.6099658 15.54611816h1.9453284c.5677235 0 1.0247716.457048 1.0247716 1.024772v1.945328c0 .567724-.4570481 1.024772-1.0247716 1.024772h-1.9453284c-.56772349 0-1.02477161-.457048-1.02477161-1.024772v-1.945328c0-.567724.45704812-1.024772 1.02477161-1.024772zm.014712-7.7730586h1.9453284c.5677235 0 1.0247716.4570482 1.0247716 1.0247716v1.945328c0 .567724-.4570481 1.024772-1.0247716 1.024772h-1.9453279c-.56772349 0-1.02477161-.457048-1.02477161-1.024772v-1.945328c0-.5677234.45704812-1.0247716 1.02477161-1.0247716z" fill="var(--color, currentcolor)"/>
</svg>
