<svg height="24" viewBox="0 0 24 24" width="24" xmlns="http://www.w3.org/2000/svg">
    <path
        d="m12 1c-6.07513 0-11 4.92487-11 11 0 6.0751 4.92487 11 11 11 6.0751 0 11-4.9249 11-11 0-6.07513-4.9249-11-11-11zm4.5 7c.255925 0 .511781.0977087.707031.2929688.3905.39053.3905 1.0235324 0 1.4140624l-6 5.9999998c-.3905.3905-1.023552.3905-1.4140622 0l-3-3c-.39052-.3905-.3905201-1.023562 0-1.414062.39053-.3905 1.0235325-.3905 1.4140624 0l2.2929688 2.292969 5.292969-5.2929692c.19525-.19526.451106-.2929688.707031-.2929688z"
        fill="var(--color, currentColor)" />
</svg>