<svg width="24" height="24" viewBox="0 0 24 24" xmlns="http://www.w3.org/2000/svg">
<path d="M3 12C3 7.02944 7.02944 3 12 3C12.5523 3 13 2.55228 13 2C13 1.44772 12.5523 1 12 1C5.92487 1 1 5.92487 1 12C1 18.0751 5.92487 23 12 23C18.0751 23 23 18.0751 23 12C23 11.4477 22.5523 11 22 11C21.4477 11 21 11.4477 21 12C21 16.9706 16.9706 21 12 21C7.02944 21 3 16.9706 3 12Z" fill="var(--color, currentColor)"/>
<path d="M11 18C11 18.5523 11.4477 19 12 19C12.5523 19 13 18.5523 13 18V12C13 11.6212 12.786 11.275 12.4472 11.1056L8.44721 9.10557C7.95324 8.85858 7.35256 9.05881 7.10557 9.55279C6.85858 10.0468 7.05881 10.6474 7.55279 10.8944L11 12.618V18Z" fill="var(--color, currentColor)"/>
<path d="M19 1C19.5523 1 20 1.44772 20 2V4H22C22.5523 4 23 4.44772 23 5C23 5.55228 22.5523 6 22 6H20V8C20 8.55228 19.5523 9 19 9C18.4477 9 18 8.55228 18 8V6H16C15.4477 6 15 5.55228 15 5C15 4.44772 15.4477 4 16 4H18V2C18 1.44772 18.4477 1 19 1Z" fill="var(--color, currentColor)"/>
</svg>
