<svg width="24" height="24" viewBox="0 0 24 24" xmlns="http://www.w3.org/2000/svg">
<path fill-rule="evenodd" clip-rule="evenodd" d="M12.5263 3C7.84642 3 4.05263 6.7938 4.05263 11.4737C4.05263 12.8761 4.39253 14.1962 4.99358 15.3589C5.11855 15.6006 5.1396 15.8829 5.05187 16.1405L3.58877 20.4367L8.00878 19.0109C8.25718 18.9308 8.52708 18.9509 8.76082 19.0671C9.89401 19.6302 11.1717 19.9474 12.5263 19.9474C17.2062 19.9474 21 16.1536 21 11.4737C21 6.7938 17.2062 3 12.5263 3ZM2.05263 11.4737C2.05263 5.68923 6.74186 1 12.5263 1C18.3108 1 23 5.68923 23 11.4737C23 17.2581 18.3108 21.9474 12.5263 21.9474C11.0035 21.9474 9.5543 21.6218 8.24662 21.0357L2.307 22.9517C1.94708 23.0678 1.55244 22.9709 1.28719 22.7014C1.02194 22.4318 0.931464 22.0356 1.05338 21.6776L3.02538 15.8871C2.40093 14.5448 2.05263 13.0487 2.05263 11.4737Z" fill="var(--color, currentColor)"/>
</svg>
