<svg width="24" height="24" viewBox="0 0 24 24" xmlns="http://www.w3.org/2000/svg">
<path d="M19 2C19 1.44772 18.5523 1 18 1C17.4477 1 17 1.44772 17 2L17 22C17 22.5523 17.4477 23 18 23C18.5523 23 19 22.5523 19 22L19 2Z" fill="var(--color, currentColor)"/>
<path d="M6 5C6.55228 5 7 5.44772 7 6L7 18C7 18.5523 6.55229 19 6 19C5.44772 19 5 18.5523 5 18V6C5 5.44772 5.44772 5 6 5Z" fill="var(--color, currentColor)"/>
<path d="M12 8C12.5523 8 13 8.44772 13 9V15C13 15.5523 12.5523 16 12 16C11.4477 16 11 15.5523 11 15L11 9C11 8.44772 11.4477 8 12 8Z" fill="var(--color, currentColor)"/>
</svg>
