<svg width="24" height="24" viewBox="0 0 24 24" xmlns="http://www.w3.org/2000/svg">
<path d="M15.0001 2C14.4478 2 14.0001 2.44771 14.0001 2.99999C14.0001 3.55228 14.4478 4 15.0001 4L18.586 4.00002L9.29314 13.2928C8.90261 13.6834 8.90261 14.3165 9.29314 14.707C9.68366 15.0976 10.3168 15.0976 10.7074 14.707L20.0001 5.41427V9.00003C20.0001 9.55232 20.4478 10 21.0001 10C21.5524 10 22.0001 9.55232 22.0001 9.00003V3.00003C22.0001 2.44775 21.5524 2.00003 21.0001 2.00003L15.0001 2Z" fill="var(--color, currentColor)"/>
<path d="M7 5.99994C5.89543 5.99994 5 6.89537 5 7.99994V16.9999C5 18.1045 5.89543 18.9999 7 18.9999H16C17.1046 18.9999 18 18.1045 18 16.9999V13.9999C18 13.4477 18.4477 12.9999 19 12.9999C19.5523 12.9999 20 13.4477 20 13.9999V16.9999C20 19.2091 18.2091 20.9999 16 20.9999H7C4.79086 20.9999 3 19.2091 3 16.9999V7.99994C3 5.7908 4.79086 3.99994 7 3.99994H10C10.5523 3.99994 11 4.44765 11 4.99994C11 5.55222 10.5523 5.99994 10 5.99994H7Z" fill="var(--color, currentColor)"/>
</svg>
