<svg width="24" height="24" viewBox="0 0 24 24" xmlns="http://www.w3.org/2000/svg">
<path fill-rule="evenodd" clip-rule="evenodd" d="M12 8C9.79086 8 8 9.79086 8 12C8 14.2091 9.79086 16 12 16C14.2091 16 16 14.2091 16 12C16 9.79086 14.2091 8 12 8ZM10 12C10 10.8954 10.8954 10 12 10C13.1046 10 14 10.8954 14 12C14 13.1046 13.1046 14 12 14C10.8954 14 10 13.1046 10 12Z" fill="var(--color, currentColor)"/>
<path fill-rule="evenodd" clip-rule="evenodd" d="M23.8512 11.4752C24.0491 11.7967 24.0495 12.2028 23.8516 12.5242L23 12C23.8516 12.5242 23.8508 12.5255 23.8508 12.5255L23.8495 12.5275L23.8457 12.5337L23.8326 12.5547C23.8215 12.5724 23.8056 12.5975 23.7851 12.6294C23.7441 12.6934 23.6846 12.785 23.6073 12.9003C23.453 13.1307 23.2276 13.4565 22.9386 13.846C22.3618 14.6231 21.5251 15.6624 20.4869 16.7054C18.4536 18.7484 15.4556 21 12 21C8.54438 21 5.54638 18.7484 3.51306 16.7054C2.47489 15.6624 1.63819 14.6231 1.06143 13.846C0.772407 13.4565 0.547032 13.1307 0.392654 12.9003C0.315428 12.785 0.255861 12.6934 0.214873 12.6294C0.194375 12.5975 0.178514 12.5724 0.167404 12.5547L0.154313 12.5337L0.150464 12.5275L0.148427 12.5242C-0.0494756 12.2028 -0.0494756 11.7972 0.148427 11.4758L1 12C0.148427 11.4758 0.149218 11.4745 0.149218 11.4745L0.150464 11.4725L0.154313 11.4663L0.167404 11.4453C0.178514 11.4276 0.194375 11.4025 0.214873 11.3706C0.255861 11.3066 0.315428 11.215 0.392654 11.0997C0.547032 10.8693 0.772407 10.5435 1.06143 10.154C1.63819 9.37691 2.47489 8.33763 3.51306 7.29456C5.54638 5.25164 8.54438 3 12 3C15.4556 3 18.4536 5.25164 20.4869 7.29456C21.5251 8.33763 22.3618 9.37691 22.9386 10.154C23.2276 10.5435 23.453 10.8693 23.6073 11.0997C23.6846 11.215 23.7441 11.3066 23.7851 11.3706C23.8056 11.4025 23.8215 11.4276 23.8326 11.4453L23.8457 11.4663L23.8495 11.4725L23.8512 11.4752ZM2.66744 12.654C2.48094 12.4027 2.32395 12.1812 2.19898 12C2.32395 11.8187 2.48094 11.5973 2.66744 11.346C3.20394 10.6231 3.97816 9.66237 4.93059 8.70544C6.87849 6.74836 9.38049 5 12 5C14.6195 5 17.1215 6.74836 19.0694 8.70544C20.0218 9.66237 20.7961 10.6231 21.3326 11.346C21.5191 11.5973 21.6761 11.8187 21.801 12C21.6761 12.1812 21.5191 12.4027 21.3326 12.654C20.7961 13.3769 20.0218 14.3376 19.0694 15.2946C17.1215 17.2516 14.6195 19 12 19C9.38049 19 6.87849 17.2516 4.93059 15.2946C3.97816 14.3376 3.20394 13.3769 2.66744 12.654ZM23 12C23.8516 11.4758 23.8512 11.4752 23.8512 11.4752L23 12Z" fill="var(--color, currentColor)"/>
</svg>
