<svg width="24" height="24" viewBox="0 0 24 24" xmlns="http://www.w3.org/2000/svg">
<path fill-rule="evenodd" clip-rule="evenodd" d="M0.292893 0.292893C0.683417 -0.0976311 1.31658 -0.0976311 1.70711 0.292893L14.7946 13.3804C14.8063 13.391 14.8177 13.4019 14.829 13.4132C14.8404 13.4246 14.8515 13.4362 14.8622 13.448L23.7071 22.2929C24.0976 22.6834 24.0976 23.3166 23.7071 23.7071C23.3166 24.0976 22.6834 24.0976 22.2929 23.7071L17.6578 19.072C16.033 20.163 14.1055 21 12 21C8.54438 21 5.54638 18.7484 3.51306 16.7054C2.47489 15.6624 1.63819 14.6231 1.06143 13.846C0.772407 13.4565 0.547032 13.1307 0.392654 12.9003C0.315428 12.785 0.255861 12.6934 0.214873 12.6294C0.194375 12.5975 0.178514 12.5724 0.167404 12.5547L0.154313 12.5337L0.150464 12.5275L0.149218 12.5255C0.149039 12.5252 0.148427 12.5242 1 12C0.148427 11.4758 0.148527 11.4756 0.148634 11.4754L0.149546 11.4739L0.151434 11.4709L0.157506 11.4611L0.178751 11.4273C0.196927 11.3985 0.223097 11.3575 0.257009 11.3052C0.324816 11.2008 0.42367 11.0515 0.551542 10.866C0.807083 10.4953 1.17965 9.97855 1.65306 9.38588C2.42355 8.42128 3.47561 7.23731 4.73918 6.15339L0.292893 1.70711C-0.0976311 1.31658 -0.0976311 0.683417 0.292893 0.292893ZM12.5182 13.9324L10.0676 11.4818C10.0235 11.6469 10 11.8205 10 12C10 13.1046 10.8954 14 12 14C12.1794 14 12.353 13.9765 12.5182 13.9324ZM8.55396 9.96817C8.20221 10.5638 8 11.259 8 12C8 14.2092 9.79086 16 12 16C12.7414 16 13.4364 15.7977 14.0318 15.446L16.2122 17.6264C14.881 18.4617 13.4546 19 12 19C9.38049 19 6.87849 17.2516 4.93059 15.2946C3.97816 14.3376 3.20394 13.3769 2.66744 12.654C2.48094 12.4027 2.32395 12.1812 2.19898 12C2.43239 11.6615 2.77674 11.1837 3.21574 10.6341C3.96385 9.6975 4.9713 8.57198 6.15799 7.5722L8.55396 9.96817Z" fill="var(--color, currentColor)"/>
<path d="M1 12L0.148427 12.5242C-0.0494755 12.2028 -0.0492679 11.7969 0.148634 11.4754L1 12Z" fill="var(--color, currentColor)"/>
<path d="M12 5C11.2655 5 10.5384 5.13678 9.82416 5.38151C9.3017 5.56054 8.73303 5.28214 8.554 4.75967C8.37497 4.23721 8.65337 3.66854 9.17584 3.48951C10.0679 3.18381 11.0146 3 12 3C15.4556 3 18.4536 5.25164 20.4869 7.29456C21.5251 8.33763 22.3618 9.37691 22.9386 10.154C23.2276 10.5435 23.453 10.8693 23.6073 11.0997C23.6846 11.215 23.7441 11.3066 23.7851 11.3706C23.8056 11.4025 23.8215 11.4276 23.8326 11.4453L23.8457 11.4663L23.8495 11.4725L23.8508 11.4745C23.851 11.4748 23.8516 11.4758 23 12C23.8516 12.5242 23.8515 12.5243 23.8514 12.5244L23.85 12.5268L23.847 12.5316L23.8373 12.5471L23.8025 12.6023C23.7725 12.6494 23.729 12.7168 23.6727 12.8021C23.56 12.9726 23.3955 13.2151 23.1837 13.5102C22.7607 14.0995 22.1456 14.9032 21.3744 15.7645C21.006 16.176 20.3738 16.2109 19.9623 15.8425C19.5509 15.4741 19.516 14.8419 19.8844 14.4304C20.5975 13.634 21.1678 12.8889 21.559 12.3439C21.6496 12.2177 21.7304 12.1024 21.801 12C21.6761 11.8187 21.5191 11.5973 21.3326 11.346C20.7961 10.6231 20.0218 9.66237 19.0694 8.70544C17.1215 6.74836 14.6195 5 12 5Z" fill="var(--color, currentColor)"/>
<path d="M23 12L23.8516 11.4758C24.0495 11.7972 24.0493 12.203 23.8514 12.5244L23 12Z" fill="var(--color, currentColor)"/>
</svg>
