<svg width="24" height="24" viewBox="0 0 24 24" xmlns="http://www.w3.org/2000/svg">
<path fill-rule="evenodd" clip-rule="evenodd" d="M12 23C18.0751 23 23 18.0751 23 12C23 5.92487 18.0751 1 12 1C5.92487 1 1 5.92487 1 12C1 18.0751 5.92487 23 12 23ZM12 3C11.8113 3 11.5303 3.0915 11.1696 3.47296C10.8068 3.85653 10.4341 4.46523 10.1 5.30032C9.79423 6.06487 9.53728 6.97785 9.34882 8H14.6512C14.4627 6.97785 14.2058 6.06487 13.9 5.30032C13.5659 4.46523 13.1932 3.85653 12.8304 3.47296C12.4697 3.0915 12.1887 3 12 3ZM8.2431 4.55754C7.84604 5.55017 7.53168 6.71743 7.31841 8H3.93552C4.91623 6.02656 6.59999 4.46416 8.65909 3.64049C8.50959 3.93083 8.371 4.23779 8.2431 4.55754ZM7.07687 10H3.22302C3.07706 10.6432 3 11.3126 3 12C3 12.6874 3.07706 13.3568 3.22302 14H7.07687C7.02626 13.3502 7 12.6815 7 12C7 11.3185 7.02626 10.6498 7.07687 10ZM7.31841 16H3.93552C4.91624 17.9734 6.59999 19.5358 8.65909 20.3595C8.50959 20.0692 8.371 19.7622 8.2431 19.4425C7.84604 18.4498 7.53168 17.2826 7.31841 16ZM9.34882 16H14.6512C14.4627 17.0222 14.2058 17.9351 13.9 18.6997C13.5659 19.5348 13.1932 20.1435 12.8304 20.527C12.4697 20.9085 12.1887 21 12 21C11.8113 21 11.5303 20.9085 11.1696 20.527C10.8068 20.1435 10.4341 19.5348 10.1 18.6997C9.79423 17.9351 9.53728 17.0222 9.34882 16ZM14.9166 14H9.08344C9.02898 13.3579 9 12.6889 9 12C9 11.3111 9.02898 10.6421 9.08344 10H14.9166C14.971 10.6421 15 11.3111 15 12C15 12.6889 14.971 13.3579 14.9166 14ZM16.6816 16C16.4683 17.2826 16.154 18.4498 15.7569 19.4425C15.629 19.7622 15.4904 20.0692 15.3409 20.3595C17.4 19.5358 19.0838 17.9734 20.0645 16H16.6816ZM20.777 14H16.9231C16.9737 13.3502 17 12.6815 17 12C17 11.3185 16.9737 10.6498 16.9231 10H20.777C20.9229 10.6432 21 11.3126 21 12C21 12.6874 20.9229 13.3568 20.777 14ZM15.3409 3.64049C17.4 4.46416 19.0838 6.02656 20.0645 8H16.6816C16.4683 6.71743 16.154 5.55017 15.7569 4.55754C15.629 4.23779 15.4904 3.93083 15.3409 3.64049Z" fill="var(--color, currentColor)"/>
</svg>
