<svg height="24" viewBox="0 0 24 24" width="24" xmlns="http://www.w3.org/2000/svg">
    <path
        d="m12 1c-6.07513 0-11 4.92487-11 11 0 6.0751 4.92487 11 11 11 6.0751 0 11-4.9249 11-11 0-6.07513-4.9249-11-11-11zm-.103516 4.9960938c.233413-.0014233.466469.0167156.699219.0566406.9311.1597 1.776366.6445175 2.384766 1.3671875.6082.72252.940753 1.6375912.939453 2.5820311-.0005 1.5304-1.135113 2.539978-1.945313 3.080078-.4356.2905-.864087.504232-1.179687.644531-.1593.070801-.294025.12531-.390625.16211-.0484.0184-.086634.030816-.115235.041016l-.035156.013671-.011718.003907h-.003907c-.000006-.000002-.002744-.000321-.318359-.947266l.316406.949219c-.5239.1746-1.090925-.108813-1.265625-.632813-.1745-.5236.109513-1.090525.632813-1.265625l.015625-.003906c.0154-.0055.040618-.014544.074218-.027344.0674-.0257.167063-.066894.289063-.121093.2468-.109701.568412-.270869.882812-.480469.6896-.4597 1.054688-.948869 1.054688-1.417969v-.0019531c.0007-.47231-.166503-.9296756-.470703-1.2910157-.3041-.36133-.725906-.6037437-1.191407-.6835937-.4655-.07985-.944362.0087269-1.351562.2480469-.4072.23931-.716247.6149868-.873047 1.0605468-.1832399.52099-.7544005.7946078-1.2753905.6113282-.52099-.18327-.7945981-.7544007-.6113281-1.2753906.31347-.8911101.9316837-1.6424538 1.7460937-2.1210938.6108229-.3589725 1.3036669-.5465114 2.0039059-.5507812zm.103516 10.0039062h.009766c.5523 0 1 .4477 1 1s-.4477 1-1 1h-.009766c-.5523 0-1-.4477-1-1s.4477-1 1-1z"
        fill="var(--color, currentColor)" />
</svg>