<svg width="24" height="24" viewBox="0 0 24 24" xmlns="http://www.w3.org/2000/svg">
    <path
        d="M11 17C11 16.4477 11.4477 16 12 16H12.01C12.5623 16 13.01 16.4477 13.01 17C13.01 17.5523 12.5623 18 12.01 18H12C11.4477 18 11 17.5523 11 17Z"
        fill="var(--color, currentColor)" />
    <path
        d="M10.9066 8.27135C11.3138 8.03203 11.7926 7.94455 12.2581 8.0244C12.7236 8.10425 13.1459 8.34628 13.45 8.70761C13.7542 9.06895 13.9207 9.52628 13.92 9.99859L13.92 10.0001C13.92 10.4692 13.5549 10.9583 12.8653 11.418C12.5509 11.6276 12.2294 11.7891 11.9826 11.8988C11.8606 11.953 11.7603 11.993 11.6929 12.0187C11.6593 12.0315 11.6341 12.0407 11.6187 12.0462L11.6027 12.0517C11.0794 12.2268 10.7968 12.7927 10.9713 13.3163C11.146 13.8403 11.7123 14.1234 12.2362 13.9488L11.92 13.0001C12.2362 13.9488 12.2375 13.9483 12.2375 13.9483L12.239 13.9478L12.2429 13.9465L12.254 13.9427L12.2887 13.9306C12.3173 13.9204 12.3565 13.9061 12.4049 13.8877C12.5015 13.8509 12.6356 13.7972 12.7949 13.7264C13.1105 13.5861 13.5391 13.3726 13.9747 13.0821C14.7849 12.542 15.9195 11.5314 15.92 10.001C15.9213 9.05656 15.5883 8.14213 14.9801 7.41961C14.3717 6.69694 13.5273 6.21289 12.5962 6.05319C11.6652 5.89349 10.7077 6.06845 9.89327 6.54708C9.07886 7.02572 8.46013 7.77713 8.14666 8.66824C7.96339 9.18923 8.23716 9.76015 8.75815 9.94342C9.27914 10.1267 9.85006 9.85292 10.0333 9.33193C10.1901 8.88637 10.4994 8.51066 10.9066 8.27135Z"
        fill="var(--color, currentColor)" />
    <path fill-rule="evenodd" clip-rule="evenodd"
        d="M1 12C1 5.92487 5.92487 1 12 1C18.0751 1 23 5.92487 23 12C23 18.0751 18.0751 23 12 23C5.92487 23 1 18.0751 1 12ZM12 3C7.02944 3 3 7.02944 3 12C3 16.9706 7.02944 21 12 21C16.9706 21 21 16.9706 21 12C21 7.02944 16.9706 3 12 3Z"
        fill="var(--color, currentColor)" />
</svg>