<svg width="24" height="24" version="1.1" viewBox="0 0 24 24" xmlns="http://www.w3.org/2000/svg">
    <path
        d="m10.357 6.4081c0.6108-0.35898 1.329-0.4902 2.0272-0.37042s1.3317 0.48282 1.7878 1.0248c0.4563 0.54201 0.70605 1.228 0.705 1.9365v0.00226c0 0.70365-0.54765 1.4373-1.582 2.1269-0.4716 0.3144-0.95385 0.55665-1.324 0.7212-0.183 0.0813-0.33345 0.1413-0.43455 0.17985-0.0504 0.0192-0.0882 0.033-0.1113 0.04125l-0.024 0.0083c-0.78495 0.26265-1.2088 1.1115-0.9471 1.8969 0.26205 0.786 1.1115 1.2106 1.8974 0.94875l-0.4743-1.423c0.4743 1.423 0.47625 1.4223 0.47625 1.4223l0.0023-7.5e-4 0.0058-0.0019 0.01665-0.0057 0.05205-0.01815c0.0429-0.0153 0.1017-0.03675 0.1743-0.06435 0.1449-0.0552 0.34605-0.13575 0.585-0.24195 0.4734-0.21045 1.1163-0.5307 1.7697-0.96645 1.2153-0.81015 2.9172-2.326 2.918-4.6217 2e-3 -1.4167-0.49755-2.7883-1.4098-3.8721-0.9126-1.084-2.1792-1.8101-3.5758-2.0496-1.3965-0.23955-2.8328 0.02289-4.0544 0.74084-1.2216 0.71796-2.1497 1.8451-2.6199 3.1817-0.2749 0.78148 0.13575 1.6379 0.91724 1.9128 0.78148 0.27492 1.6379-0.13575 1.9127-0.91724 0.2352-0.66834 0.69915-1.2319 1.3099-1.5909zm0.1401 13.093c0-0.82845 0.67155-1.5 1.5-1.5h0.015c0.82845 0 1.5 0.67155 1.5 1.5s-0.67155 1.5-1.5 1.5h-0.015c-0.82845 0-1.5-0.67155-1.5-1.5z"
        stroke-width="1.5" fill="var(--color, currentColor)" />
</svg>