<svg width="24" height="24" viewBox="0 0 24 24" xmlns="http://www.w3.org/2000/svg">
<path d="M6 4C4.89543 4 4 4.89543 4 6V18C4 19.1046 4.89543 20 6 20H18C19.1046 20 20 19.1046 20 18V10C20 9.44772 20.4477 9 21 9C21.5523 9 22 9.44772 22 10V18C22 20.2091 20.2091 22 18 22H6C3.79086 22 2 20.2091 2 18V6C2 3.79086 3.79086 2 6 2H14C14.5523 2 15 2.44772 15 3C15 3.55228 14.5523 4 14 4H6Z" fill="var(--color, currentColor)"/>
<path d="M11.0001 11.5857L11.0001 7.99991C11.0001 7.44762 10.5524 6.99991 10.0001 6.99991C9.44784 6.99991 9.00012 7.44762 9.00012 7.99991V13.9999C9.00012 14.5522 9.44783 14.9999 10.0001 14.9999L16.0001 14.9999C16.5524 14.9999 17.0002 14.5522 17.0002 13.9999C17.0002 13.4477 16.5524 12.9999 16.0002 12.9999L12.4143 12.9999L21.7071 3.70711C22.0976 3.31658 22.0976 2.68342 21.7071 2.29289C21.3166 1.90237 20.6834 1.90237 20.2929 2.29289L11.0001 11.5857Z" fill="var(--color, currentColor)"/>
</svg>
