<svg width="24" height="24" viewBox="0 0 24 24" xmlns="http://www.w3.org/2000/svg">
<path fill-rule="evenodd" clip-rule="evenodd" d="M18.364 4.22185C18.7545 3.83132 19.3876 3.83132 19.7782 4.22185C21.0573 5.50098 22.0012 7.07582 22.5263 8.80689C23.0515 10.538 23.1415 12.3718 22.7886 14.146C22.4357 15.9202 21.6507 17.58 20.5031 18.9783C19.3555 20.3767 17.8808 21.4704 16.2095 22.1627C14.5383 22.855 12.7221 23.1244 10.9218 22.9471C9.12156 22.7697 7.39282 22.1512 5.88873 21.1462C4.38463 20.1412 3.1516 18.7807 2.29887 17.1854C1.44613 15.59 1 13.809 1 12C1 11.4477 1.44772 11 2 11C2.55228 11 3 11.4477 3 12C3 13.4801 3.36501 14.9373 4.06271 16.2426C4.7604 17.5479 5.76924 18.661 6.99987 19.4833C8.23049 20.3055 9.64491 20.8116 11.1178 20.9567C12.5908 21.1018 14.0768 20.8813 15.4442 20.3149C16.8115 19.7485 18.0182 18.8537 18.9571 17.7096C19.896 16.5655 20.5383 15.2075 20.8271 13.7558C21.1158 12.3042 21.0421 10.8038 20.6125 9.38746C20.1828 7.97113 19.4105 6.68262 18.364 5.63606C17.9734 5.24554 17.9734 4.61237 18.364 4.22185Z" fill="var(--color, currentColor)"/>
</svg>
