<svg height="75" viewBox="0 0 300 75" width="300" xmlns="http://www.w3.org/2000/svg">
  <g fill="var(--color, currentcolor)">
    <path d="m3.796 51.56v-30.843h6.217v11.108c1.917-2.076 4.188-3.114 6.813-3.114 2.861 0 5.229.985 7.102 2.956 1.873 1.97 2.81 4.8 2.81 8.488 0 3.815-.955 6.754-2.865 8.815s-4.229 3.093-6.958 3.093c-1.342 0-2.666-.319-3.971-.957-1.305-.639-2.43-1.582-3.374-2.83v3.282h-5.774zm6.172-11.656c0 2.314.383 4.025 1.15 5.133 1.077 1.571 2.507 2.357 4.292 2.357 1.372 0 2.541-.559 3.506-1.674.966-1.114 1.449-2.871 1.449-5.27 0-2.553-.487-4.394-1.46-5.522-.974-1.129-2.22-1.693-3.739-1.693-1.489 0-2.729.55-3.716 1.651-.988 1.102-1.482 2.774-1.482 5.018zm37.233 11.656v-3.345c-.855 1.191-1.98 2.131-3.374 2.818-1.394.688-2.865 1.031-4.414 1.031-1.578 0-2.994-.33-4.248-.988-1.254-.66-2.161-1.586-2.721-2.777-.561-1.192-.841-2.84-.841-4.944v-14.138h6.216v10.267c0 3.142.115 5.067.343 5.774.229.709.645 1.27 1.25 1.684.604.414 1.372.621 2.301.621 1.062 0 2.013-.277 2.854-.832.841-.553 1.416-1.24 1.726-2.061.31-.82.465-2.83.465-6.027v-9.426h6.216v22.343zm10.022-6.374 6.239-.905c.266 1.149.804 2.022 1.615 2.619s1.947.894 3.407.894c1.607 0 2.817-.279 3.628-.841.546-.394.819-.919.819-1.578 0-.448-.147-.82-.442-1.114-.31-.281-1.003-.541-2.08-.779-5.015-1.052-8.193-2.012-9.535-2.882-1.858-1.206-2.788-2.882-2.788-5.028 0-1.936.804-3.563 2.412-4.881s4.1-1.978 7.478-1.978c3.215 0 5.604.498 7.168 1.494 1.563.996 2.64 2.469 3.229 4.418l-5.862 1.031c-.251-.87-.727-1.536-1.427-1.999-.701-.463-1.7-.694-2.998-.694-1.637 0-2.81.217-3.518.652-.472.309-.708.708-.708 1.199 0 .421.207.778.619 1.073.561.393 2.496.946 5.808 1.662 3.311.716 5.623 1.593 6.935 2.63 1.298 1.052 1.947 2.518 1.947 4.396 0 2.049-.9 3.809-2.699 5.281s-4.461 2.209-7.986 2.209c-3.201 0-5.733-.617-7.599-1.852s-3.087-2.91-3.662-5.027zm27.388-18.998v-5.47h6.217v5.47zm0 25.372v-22.343h6.217v22.343zm33.959 0h-6.217v-11.404c0-2.412-.133-3.972-.398-4.681-.266-.708-.697-1.259-1.294-1.651s-1.316-.589-2.157-.589c-1.077 0-2.043.28-2.898.841s-1.441 1.305-1.759 2.23c-.317.926-.476 2.637-.476 5.133v10.12h-6.216v-22.342h5.774v3.282c2.05-2.525 4.631-3.787 7.743-3.787 1.372 0 2.625.235 3.761.705s1.995 1.07 2.577 1.799c.583.729.988 1.557 1.217 2.482.229.926.343 2.251.343 3.977zm19.91-7.111 6.195.988c-.796 2.16-2.054 3.805-3.772 4.934s-3.868 1.693-6.449 1.693c-4.085 0-7.109-1.27-9.071-3.809-1.548-2.033-2.323-4.6-2.323-7.699 0-3.703 1.018-6.603 3.053-8.699 2.036-2.097 4.609-3.146 7.721-3.146 3.495 0 6.253 1.098 8.274 3.292s2.987 5.558 2.898 10.087h-15.574c.044 1.754.545 3.117 1.504 4.092.958.975 2.153 1.463 3.583 1.463.974 0 1.792-.252 2.456-.758.665-.503 1.166-1.317 1.505-2.438zm.354-5.975c-.044-1.711-.509-3.012-1.394-3.902s-1.961-1.336-3.23-1.336c-1.357 0-2.478.47-3.363 1.409-.885.94-1.32 2.216-1.305 3.829zm9.048 6.712 6.239-.905c.266 1.149.804 2.022 1.615 2.619s1.947.894 3.406.894c1.607 0 2.817-.279 3.629-.841.545-.394.818-.919.818-1.578 0-.448-.147-.82-.442-1.114-.31-.281-1.003-.541-2.079-.779-5.016-1.052-8.193-2.012-9.535-2.882-1.859-1.206-2.788-2.882-2.788-5.028 0-1.936.804-3.563 2.411-4.881s4.101-1.978 7.479-1.978c3.215 0 5.604.498 7.167 1.494s2.64 2.469 3.229 4.418l-5.861 1.031c-.252-.87-.727-1.536-1.428-1.999-.7-.463-1.699-.694-2.998-.694-1.637 0-2.809.217-3.517.652-.472.309-.708.708-.708 1.199 0 .421.206.778.619 1.073.561.393 2.496.946 5.807 1.662 3.313.716 5.623 1.593 6.936 2.63 1.299 1.052 1.947 2.518 1.947 4.396 0 2.049-.899 3.809-2.699 5.281-1.799 1.473-4.461 2.209-7.986 2.209-3.2 0-5.732-.617-7.599-1.852-1.866-1.234-3.086-2.91-3.662-5.027zm25.198 0 6.239-.905c.265 1.149.804 2.022 1.614 2.619.812.597 1.947.894 3.407.894 1.608 0 2.817-.279 3.628-.841.546-.394.818-.919.818-1.578 0-.448-.146-.82-.441-1.114-.311-.281-1.004-.541-2.08-.779-5.015-1.052-8.193-2.012-9.535-2.882-1.857-1.206-2.787-2.882-2.787-5.028 0-1.936.804-3.563 2.411-4.881 1.608-1.318 4.101-1.978 7.478-1.978 3.215 0 5.604.498 7.168 1.494 1.563.996 2.641 2.469 3.23 4.418l-5.863 1.031c-.25-.87-.727-1.536-1.427-1.999s-1.7-.694-2.997-.694c-1.638 0-2.811.217-3.518.652-.473.309-.709.708-.709 1.199 0 .421.207.778.62 1.073.56.393 2.496.946 5.808 1.662 3.311.716 5.623 1.593 6.936 2.63 1.297 1.052 1.946 2.518 1.946 4.396 0 2.049-.899 3.809-2.699 5.281s-4.462 2.209-7.986 2.209c-3.2 0-5.733-.617-7.599-1.852-1.866-1.234-3.086-2.91-3.662-5.027z"/>
    <path stroke="var(--color, currentcolor)" d="m2.203 17.658c-15.07 1.872 160.541-25.221 185.842-12.7 25.301 12.522 10.721 26.648 15.869 51.079 5.148 24.43 73.508 1.186 82.08-.791s-71.615 34.457-84.433 8.984c-4.153-12.744 7.684-38.522-11.565-50.323-19.25-11.801-172.725 1.878-187.793 3.751z"/>
    <path d="m224.782 43.754 3.777.491c-.413 2.604-1.47 4.642-3.169 6.114-1.701 1.473-3.789 2.209-6.264 2.209-3.102 0-5.596-1.014-7.48-3.041s-2.828-4.934-2.828-8.719c0-2.447.406-4.588 1.217-6.423s2.045-3.212 3.703-4.13c1.657-.917 3.461-1.376 5.41-1.376 2.461 0 4.475.623 6.039 1.868s2.568 3.013 3.01 5.303l-3.735.576c-.355-1.522-.985-2.667-1.889-3.436-.903-.768-1.995-1.152-3.276-1.152-1.935 0-3.507.693-4.717 2.081-1.209 1.387-1.813 3.582-1.813 6.583 0 3.045.583 5.257 1.75 6.638 1.167 1.379 2.688 2.07 4.567 2.07 1.508 0 2.768-.463 3.777-1.388s1.651-2.347 1.921-4.268zm5.634-3.03c0-4.197 1.167-7.306 3.5-9.326 1.949-1.679 4.325-2.519 7.128-2.519 3.116 0 5.663 1.021 7.64 3.063 1.979 2.042 2.967 4.862 2.967 8.462 0 2.917-.438 5.211-1.313 6.883-.875 1.671-2.148 2.97-3.82 3.895s-3.496 1.388-5.474 1.388c-3.173 0-5.737-1.018-7.693-3.053-1.956-2.036-2.935-4.966-2.935-8.793zm3.948 0c0 2.902.634 5.075 1.899 6.52s2.859 2.167 4.78 2.167c1.907 0 3.493-.727 4.759-2.178 1.267-1.451 1.9-3.664 1.9-6.637 0-2.803-.637-4.926-1.91-6.371s-2.856-2.166-4.749-2.166c-1.921 0-3.515.718-4.78 2.155s-1.899 3.607-1.899 6.51zm21.79 11.332v-22.665h3.436v3.18c.711-1.11 1.657-2.002 2.838-2.679 1.182-.676 2.525-1.014 4.033-1.014 1.68 0 3.057.349 4.131 1.046s1.831 1.672 2.272 2.924c1.792-2.646 4.126-3.97 7-3.97 2.247 0 3.977.623 5.186 1.868 1.21 1.245 1.813 3.162 1.813 5.751v15.558h-3.819v-14.277c0-1.537-.124-2.643-.374-3.318-.248-.676-.7-1.22-1.354-1.633-.655-.413-1.423-.619-2.306-.619-1.593 0-2.916.53-3.969 1.59s-1.58 2.756-1.58 5.09v13.167h-3.841v-14.725c0-1.707-.313-2.988-.938-3.841-.627-.854-1.65-1.28-3.074-1.28-1.08 0-2.08.284-2.998.854s-1.582 1.401-1.995 2.497c-.413 1.095-.619 2.675-.619 4.738v11.759h-3.842z"/>
  </g>
</svg>
