<svg width="24" height="24" viewBox="0 0 24 24" xmlns="http://www.w3.org/2000/svg">
<g clip-path="url(#clip0_2419_10452)">
<path fill-rule="evenodd" clip-rule="evenodd" d="M1.70711 0.292893C1.31658 -0.0976311 0.683417 -0.0976311 0.292893 0.292893C-0.0976311 0.683417 -0.0976311 1.31658 0.292893 1.70711L8 9.41421V12.0009C8.0007 12.7915 8.23567 13.5642 8.67524 14.2213C9.11481 14.8785 9.73927 15.3906 10.4697 15.6931C11.2002 15.9955 12.0039 16.0747 12.7794 15.9207C13.2224 15.8327 13.6448 15.6708 14.0298 15.4441L15.506 16.9202C14.8218 17.4128 14.0382 17.7581 13.2048 17.929C12.9034 17.9908 12.599 18.029 12.2942 18.044C12.2012 18.0154 12.1024 18 12 18C11.8976 18 11.7988 18.0154 11.7057 18.044C11.0241 18.0106 10.3495 17.8609 9.71183 17.5978C8.60651 17.1419 7.66263 16.3661 7.00127 15.37C6.3399 14.3739 5.99126 13.2029 6 12.0073V10C6 9.44771 5.55229 9 5 9C4.44772 9 4 9.44771 4 10V11.9965C3.9891 13.5893 4.45396 15.1492 5.33508 16.4763C6.2169 17.8044 7.47541 18.8388 8.94917 19.4467C9.60931 19.719 10.2992 19.9002 11 19.9885V22H8C7.44772 22 7 22.4477 7 23C7 23.5523 7.44772 24 8 24H16C16.5523 24 17 23.5523 17 23C17 22.4477 16.5523 22 16 22H13V19.9884C13.2028 19.9629 13.4051 19.9295 13.6064 19.8882C14.8245 19.6385 15.9628 19.1094 16.9341 18.3483L22.2929 23.7071C22.6834 24.0976 23.3166 24.0976 23.7071 23.7071C24.0976 23.3166 24.0976 22.6834 23.7071 22.2929L17.8692 16.455C17.8243 16.3762 17.7678 16.3023 17.6998 16.2357C17.637 16.1741 17.5681 16.1225 17.4951 16.0809L1.70711 0.292893ZM10 11.999V11.4142L12.5156 13.9298C12.474 13.9409 12.432 13.9506 12.3897 13.959C12.002 14.0361 11.6001 13.9964 11.2349 13.8452C10.8696 13.694 10.5574 13.4379 10.3376 13.1093C10.1179 12.7809 10.0004 12.3942 10 11.999Z" fill="var(--color, currentColor)"/>
<path d="M20 10C20 9.44771 19.5523 9 19 9C18.4477 9 18 9.44771 18 10V11.9991C17.9997 12.3526 17.9681 12.7054 17.9057 13.0534C17.8082 13.597 18.1698 14.1168 18.7134 14.2143C19.257 14.3118 19.7768 13.9502 19.8743 13.4066C19.9575 12.9426 19.9996 12.4714 20 12V10Z" fill="var(--color, currentColor)"/>
<path d="M10 4C10 2.89543 10.8954 2 12 2C13.1046 2 14 2.89543 14 4V10C14 10.5523 14.4477 11 15 11C15.5523 11 16 10.5523 16 10V4C16 1.79086 14.2091 1.49012e-08 12 1.49012e-08C9.79086 1.49012e-08 8 1.79086 8 4V4.5C8 5.05228 8.44771 5.5 9 5.5C9.55229 5.5 10 5.05228 10 4.5V4Z" fill="var(--color, currentColor)"/>
</g>
<defs>
<clipPath id="clip0_2419_10452">
<rect width="24" height="24" fill="white"/>
</clipPath>
</defs>
</svg>
