<svg width="24" height="24" viewBox="0 0 24 24" xmlns="http://www.w3.org/2000/svg">
<g clip-path="url(#clip0_2419_9894)">
<path fill-rule="evenodd" clip-rule="evenodd" d="M1.70711 0.292893C1.31658 -0.0976311 0.683417 -0.0976311 0.292893 0.292893C-0.0976311 0.683417 -0.0976311 1.31658 0.292893 1.70711L5.58028 6.99449L5 8.00109C4.99985 11.3531 4.28286 13.4348 3.6221 14.6462C3.29031 15.2544 2.96723 15.6535 2.7428 15.8904C2.63032 16.0091 2.54194 16.0878 2.48872 16.1322C2.4621 16.1544 2.44425 16.168 2.43655 16.1737L2.43369 16.1758C2.0752 16.4221 1.91657 16.8725 2.04291 17.2898C2.17061 17.7116 2.55933 18 3 18H16.5858L22.2929 23.7071C22.6834 24.0976 23.3166 24.0976 23.7071 23.7071C24.0976 23.3166 24.0976 22.6834 23.7071 22.2929L6.98039 5.56618C6.97133 5.55675 6.96207 5.5475 6.95263 5.53841L1.70711 0.292893ZM6.99664 8.41086C6.94036 11.83 6.18515 14.1239 5.3779 15.6039C5.3018 15.7434 5.22541 15.8753 5.14932 16H14.5858L6.99664 8.41086Z" fill="var(--color, currentColor)"/>
<path d="M11.6627 0.999221C12.9293 0.938118 14.1888 1.22223 15.3065 1.82122C16.4242 2.42021 17.3582 3.31157 18.0087 4.40008C18.6593 5.4886 19.0019 6.73338 19 8.00148L18.9998 8.01942C18.9747 9.61195 19.175 11.2 19.5947 12.7365C19.7402 13.2693 19.4263 13.8191 18.8935 13.9647C18.3607 14.1102 17.8109 13.7963 17.6653 13.2635C17.1963 11.5463 16.9723 9.77145 17 7.99158C17.0001 7.0882 16.7554 6.20161 16.2919 5.42608C15.8273 4.64857 15.1601 4.01189 14.3618 3.58404C13.5634 3.15619 12.6638 2.95325 11.7591 2.9969C10.8544 3.04054 9.97847 3.32913 9.225 3.83184C8.76558 4.13836 8.14467 4.01441 7.83815 3.55499C7.53163 3.09558 7.65558 2.47466 8.115 2.16814C9.16986 1.46435 10.3961 1.06032 11.6627 0.999221Z" fill="var(--color, currentColor)"/>
<path d="M9.76823 20.135C10.246 19.8579 10.8579 20.0205 11.135 20.4982C11.2229 20.6498 11.3491 20.7756 11.5009 20.863C11.6527 20.9504 11.8248 20.9965 12 20.9965C12.1752 20.9965 12.3473 20.9504 12.4991 20.863C12.6509 20.7756 12.7771 20.6498 12.865 20.4982C13.1421 20.0205 13.754 19.8579 14.2318 20.135C14.7095 20.4121 14.8721 21.024 14.595 21.5018C14.3313 21.9564 13.9528 22.3337 13.4973 22.5961C13.0419 22.8584 12.5256 22.9965 12 22.9965C11.4744 22.9965 10.9581 22.8584 10.5027 22.5961C10.0472 22.3337 9.66872 21.9564 9.405 21.5018C9.12788 21.024 9.29051 20.4121 9.76823 20.135Z" fill="var(--color, currentColor)"/>
</g>
<defs>
<clipPath id="clip0_2419_9894">
<rect width="24" height="24" fill="white"/>
</clipPath>
</defs>
</svg>
