<svg width="24" height="24" viewBox="0 0 24 24" xmlns="http://www.w3.org/2000/svg">
<path fill="none" d="M2.11249 7.00802V4.00802C2.11136 3.72952 2.16841 3.45385 2.27998 3.19867C2.39156 2.94349 2.55519 2.71443 2.76042 2.52615C2.96564 2.33788 3.20792 2.19454 3.47174 2.10531C3.73557 2.01609 4.01512 1.98295 4.29249 2.00802C7.36966 2.34238 10.3255 3.39387 12.9225 5.07802C15.3387 6.61335 17.3872 8.66185 18.9225 11.078C20.6125 13.6868 21.6643 16.657 21.9925 19.748C22.0175 20.0246 21.9846 20.3033 21.896 20.5664C21.8074 20.8295 21.6649 21.0713 21.4777 21.2764C21.2905 21.4815 21.0627 21.6453 20.8087 21.7575C20.5547 21.8697 20.2802 21.9278 20.0025 21.928H17.0025C16.5172 21.9328 16.0467 21.7609 15.6787 21.4445C15.3108 21.128 15.0704 20.6886 15.0025 20.208C14.8759 19.248 14.641 18.3053 14.3025 17.398C14.168 17.0401 14.1388 16.6511 14.2186 16.2771C14.2983 15.9032 14.4836 15.5599 14.7525 15.288L16.0225 14.018C14.5989 11.5145 12.526 9.44157 10.0225 8.01802L8.75249 9.28802C8.4806 9.55688 8.13734 9.74217 7.76337 9.82193C7.38941 9.90168 7.00042 9.87256 6.64249 9.73802C5.73522 9.39947 4.79256 9.16464 3.83249 9.03802C3.34673 8.96949 2.90309 8.72481 2.58596 8.35052C2.26883 7.97624 2.10032 7.49844 2.11249 7.00802Z" stroke="var(--color, currentcolor)" stroke-width="2" stroke-linecap="round" stroke-linejoin="round"/>
</svg>
