<svg width="24" height="24" viewBox="0 0 24 24" xmlns="http://www.w3.org/2000/svg">
<path d="M23.7071 9.20711C23.3166 9.59763 22.6834 9.59763 22.2929 9.20711L19.25 6.16421L16.2071 9.20711C15.8166 9.59763 15.1834 9.59763 14.7929 9.20711C14.4024 8.81658 14.4024 8.18342 14.7929 7.79289L17.8358 4.75L14.7929 1.70711C14.4024 1.31658 14.4024 0.683417 14.7929 0.292893C15.1834 -0.0976311 15.8166 -0.0976311 16.2071 0.292893L19.25 3.33579L22.2929 0.292894C22.6834 -0.0976308 23.3166 -0.0976308 23.7071 0.292894C24.0976 0.683418 24.0976 1.31658 23.7071 1.70711L20.6642 4.75L23.7071 7.79289C24.0976 8.18342 24.0976 8.81658 23.7071 9.20711Z" fill="var(--color, currentColor)"/>
<path d="M19.3121 22.7161C13.8085 21.5827 9.43335 18.3923 7.73279 16.6917C6.03222 14.9912 2.84181 10.6161 1.7084 5.11246C1.35378 3.39047 2.72843 1.89093 4.48412 1.79853L6.68272 1.68281C7.72469 1.62797 8.65379 2.33394 8.88014 3.35251L9.60768 6.62644C9.85102 7.72146 9.51805 8.8649 8.72487 9.65808C8.34827 10.0347 8.2318 10.5894 8.52353 11.035C8.91995 11.6405 9.62021 12.5376 10.7536 13.671C11.8869 14.8043 12.7841 15.5046 13.3896 15.901C13.8351 16.1927 14.3898 16.0763 14.7664 15.6997C15.5596 14.9065 16.7031 14.5735 17.7981 14.8168L21.072 15.5444C22.0906 15.7707 22.7966 16.6998 22.7417 17.7418L22.626 19.9404C22.5336 21.6961 21.0341 23.0707 19.3121 22.7161Z" fill="var(--color, currentColor)"/>
</svg>
