<svg width="24" height="24" viewBox="0 0 24 24" xmlns="http://www.w3.org/2000/svg">
<path d="M21.9996 18.733V20.69C22.0003 20.8717 21.963 21.0515 21.8901 21.218C21.8172 21.3845 21.7102 21.5339 21.5761 21.6567C21.442 21.7795 21.2836 21.873 21.1111 21.9312C20.9387 21.9894 20.756 22.0111 20.5747 21.9947C18.5633 21.7766 16.6313 21.0907 14.9338 19.992C13.3545 18.9905 12.0155 17.6541 11.012 16.078C9.90731 14.3761 9.21986 12.4386 9.00531 10.4222C8.98897 10.2418 9.01045 10.06 9.06838 9.88831C9.12631 9.71665 9.21942 9.55892 9.34178 9.42514C9.46413 9.29137 9.61306 9.18449 9.77907 9.1113C9.94509 9.03812 10.1246 9.00023 10.306 9.00006H12.267C12.5842 8.99695 12.8917 9.10906 13.1322 9.31549C13.3727 9.52193 13.5298 9.80861 13.5742 10.1221C13.657 10.7484 13.8105 11.3633 14.0318 11.9552C14.1197 12.1887 14.1387 12.4424 14.0866 12.6864C14.0345 12.9303 13.9134 13.1542 13.7376 13.3316L12.9075 14.1601C13.838 15.7933 15.1929 17.1455 16.8293 18.0741L17.6595 17.2457C17.8372 17.0703 18.0615 16.9494 18.306 16.8974C18.5504 16.8453 18.8047 16.8643 19.0386 16.9521C19.6316 17.173 20.2478 17.3261 20.8753 17.4087C21.1929 17.4534 21.4828 17.6131 21.6901 17.8572C21.8974 18.1014 22.0076 18.4131 21.9996 18.733Z" fill="var(--color, currentcolor)"/>
<path fill="none" d="M11 22H5C4.46957 22 3.96086 21.7893 3.58579 21.4142C3.21071 21.0391 3 20.5304 3 20V9L7.5 5.5L12 2L21 9V13" stroke="var(--color, currentcolor)" stroke-width="2" stroke-linecap="round" stroke-linejoin="round"/>
</svg>
