<svg width="24" height="24" viewBox="0 0 24 24" xmlns="http://www.w3.org/2000/svg">
<path d="M23.7071 9.20711C23.3166 9.59763 22.6834 9.59763 22.2929 9.20711L19.25 6.16421L16.2071 9.20711C15.8166 9.59763 15.1834 9.59763 14.7929 9.20711C14.4024 8.81658 14.4024 8.18342 14.7929 7.79289L17.8358 4.75L14.7929 1.70711C14.4024 1.31658 14.4024 0.683417 14.7929 0.292893C15.1834 -0.0976311 15.8166 -0.0976311 16.2071 0.292893L19.25 3.33579L22.2929 0.292894C22.6834 -0.0976308 23.3166 -0.0976308 23.7071 0.292894C24.0976 0.683418 24.0976 1.31658 23.7071 1.70711L20.6642 4.75L23.7071 7.79289C24.0976 8.18342 24.0976 8.81658 23.7071 9.20711Z" fill="var(--color, currentColor)"/>
<path fill-rule="evenodd" clip-rule="evenodd" d="M7.32194 16.7394C9.02196 18.4394 13.2864 21.5439 18.6693 22.6525C20.9866 23.1297 22.8597 21.2689 22.9725 19.1266L23.0808 17.068C23.1579 15.6046 22.1663 14.2997 20.7358 13.9818L17.6703 13.3006C16.3113 12.9986 14.8921 13.4118 13.9077 14.3962C13.8879 14.4161 13.8693 14.4288 13.855 14.4364L13.8492 14.4393C13.3491 14.1089 12.5707 13.5028 11.5646 12.4967C10.5585 11.4906 9.95237 10.7122 9.62198 10.2121L9.6249 10.2063C9.63248 10.192 9.64522 10.1734 9.66505 10.1536C10.6495 9.16917 11.0627 7.75002 10.7607 6.39097L10.0795 3.32553C9.76162 1.89497 8.45671 0.903439 6.99328 0.980463L4.9347 1.08881C2.79242 1.20156 0.931604 3.07465 1.40884 5.39203C2.51738 10.7749 5.62191 15.0393 7.32194 16.7394ZM19.0727 20.6936C14.1492 19.6796 10.2207 16.8097 8.73615 15.3251C7.25163 13.8406 4.38166 9.91205 3.36774 4.98862C3.18089 4.08135 3.89431 3.14634 5.03981 3.08605L7.0984 2.9777C7.58621 2.95202 8.02118 3.28253 8.12715 3.75939L8.80836 6.82483C8.96203 7.51636 8.75175 8.23847 8.25084 8.73939C7.63919 9.35103 7.34572 10.3868 7.93279 11.2835C8.34846 11.9184 9.05044 12.811 10.1504 13.9109C11.2503 15.0109 12.1429 15.7128 12.7778 16.1285C13.6745 16.7156 14.7103 16.4221 15.3219 15.8105C15.8228 15.3095 16.5449 15.0993 17.2365 15.2529L20.3019 15.9341C20.7788 16.0401 21.1093 16.4751 21.0836 16.9629L20.9753 19.0215C20.915 20.167 19.9799 20.8804 19.0727 20.6936Z" fill="var(--color, currentColor)"/>
</svg>
