<svg width="24" height="24" viewBox="0 0 24 24" xmlns="http://www.w3.org/2000/svg">
<path fill="none" d="M20.9994 17.2252V20.0854C21.0005 20.3509 20.946 20.6138 20.8394 20.8571C20.7328 21.1004 20.5765 21.3188 20.3804 21.4983C20.1844 21.6778 19.9529 21.8144 19.7009 21.8995C19.4489 21.9846 19.1818 22.0162 18.9168 21.9923C15.9772 21.6735 13.1534 20.671 10.6725 19.0653C8.36425 17.6014 6.4073 15.6484 4.94057 13.3447C3.32607 10.8574 2.32133 8.02557 2.00775 5.07855C1.98388 4.8149 2.01528 4.54917 2.09994 4.2983C2.18461 4.04742 2.32069 3.81688 2.49952 3.62136C2.67835 3.42585 2.89601 3.26963 3.13865 3.16267C3.38128 3.05571 3.64358 3.00034 3.90883 3.00009H6.77477C7.2384 2.99554 7.68786 3.15939 8.03938 3.4611C8.39091 3.76282 8.62052 4.18181 8.6854 4.63998C8.80637 5.55533 9.0307 6.45408 9.35413 7.31909C9.48266 7.66035 9.51047 8.03122 9.43428 8.38777C9.35809 8.74431 9.18108 9.07159 8.92423 9.33082L7.71098 10.5417C9.07093 12.9286 11.0512 14.9049 13.4429 16.2622L14.6561 15.0513C14.9159 14.795 15.2438 14.6184 15.601 14.5423C15.9583 14.4663 16.3299 14.494 16.6718 14.6223C17.5386 14.9451 18.4391 15.169 19.3563 15.2897C19.8203 15.355 20.2441 15.5883 20.5471 15.9452C20.8501 16.302 21.011 16.7576 20.9994 17.2252Z" stroke="var(--color, currentcolor)" stroke-width="2" stroke-linecap="round" stroke-linejoin="round"/>
<path fill="none" d="M20 8H15" stroke="var(--color, currentcolor)" stroke-width="2" stroke-linecap="round" stroke-linejoin="round"/>
<path fill="none" d="M22 5H15" stroke="var(--color, currentcolor)" stroke-width="2" stroke-linecap="round" stroke-linejoin="round"/>
<path fill="none" d="M20 2H15" stroke="var(--color, currentcolor)" stroke-width="2" stroke-linecap="round" stroke-linejoin="round"/>
</svg>
