<svg height="18" viewBox="0 0 48 18" width="48" xmlns="http://www.w3.org/2000/svg">
  <path d="m24 4c-3.2 0-6.3.5-9.2 1.44v6.2c0 .78-.46 1.48-1.12 1.8-1.96.98-3.74 2.24-5.32 3.7-.36.36-.86.56-1.4.56-.56 0-1.06-.22-1.42-.58l-4.96-4.96c-.36-.34-.58-.84-.58-1.4s.22-1.06.58-1.42c6.1-5.78 14.34-9.34 23.42-9.34s17.32 3.56 23.42 9.34c.36.36.58.86.58 1.42s-.22 1.06-.58 1.42l-4.96 4.96c-.36.36-.86.58-1.42.58-.54 0-1.04-.22-1.4-.56-1.58-1.48-3.38-2.72-5.34-3.7-.66-.32-1.12-1-1.12-1.8v-6.2c-2.88-.96-5.98-1.46-9.18-1.46z" fill="var(--color, currentcolor)"/>
</svg>
