<svg width="24" height="24" viewBox="0 0 24 24" xmlns="http://www.w3.org/2000/svg">
<path fill-rule="evenodd" clip-rule="evenodd" d="M2 3C1.44772 3 1 3.44772 1 4V10C1 10.5523 1.44772 11 2 11H22C22.5523 11 23 10.5523 23 10V4C23 3.44772 22.5523 3 22 3H2ZM3 9V5H21V9H3Z" fill="var(--color, currentColor)"/>
<path d="M1 15C1 14.4477 1.44772 14 2 14H22C22.5523 14 23 14.4477 23 15C23 15.5523 22.5523 16 22 16H2C1.44772 16 1 15.5523 1 15Z" fill="var(--color, currentColor)"/>
<path d="M1 20C1 19.4477 1.44772 19 2 19H22C22.5523 19 23 19.4477 23 20C23 20.5523 22.5523 21 22 21H2C1.44772 21 1 20.5523 1 20Z" fill="var(--color, currentColor)"/>
</svg>
