<svg width="24" height="24" viewBox="0 0 24 24" xmlns="http://www.w3.org/2000/svg">
<path d="M17.8366 3.24826C15.9392 2.19934 13.7523 1.79548 11.6054 2.09754C10.458 2.25897 9.11453 2.83454 7.92578 3.50241C6.72494 4.17707 5.56566 5.01216 4.79289 5.78362L3 7.57651V3.99072C3 3.43844 2.55228 2.99072 2 2.99072C1.44772 2.99072 1 3.43844 1 3.99072V9.99072C1 10.543 1.44772 10.9907 2 10.9907H8C8.55228 10.9907 9 10.543 9 9.99072C9 9.43844 8.55228 8.99072 8 8.99072H4.41421L6.20665 7.19829C6.81481 6.5912 7.81228 5.86021 8.90541 5.24606C10.0107 4.62507 11.0991 4.18846 11.884 4.07804C13.6015 3.83639 15.3511 4.15947 16.869 4.99861C18.387 5.83775 19.5911 7.14748 20.3 8.73047C21.0088 10.3134 21.184 12.0839 20.7992 13.7751C20.4143 15.4664 19.4902 16.9867 18.1662 18.107C16.8421 19.2274 15.1898 19.8871 13.4583 19.9868C11.7267 20.0865 10.0096 19.6207 8.56576 18.6596C7.12192 17.6985 6.02953 16.2943 5.45318 14.6584C5.26965 14.1375 4.69861 13.864 4.1777 14.0475C3.6568 14.231 3.3833 14.8021 3.56682 15.323C4.28726 17.3678 5.65275 19.1232 7.45755 20.3245C9.26235 21.5258 11.4087 22.1081 13.5732 21.9835C15.7377 21.8589 17.803 21.0343 19.4581 19.6338C21.1131 18.2334 22.2682 16.3329 22.7493 14.2189C23.2304 12.1049 23.0114 9.89181 22.1253 7.91308C21.2392 5.93435 19.7341 4.29718 17.8366 3.24826Z" fill="var(--color, currentColor)"/>
</svg>
