<svg width="24" height="24" viewBox="0 0 24 24" xmlns="http://www.w3.org/2000/svg">
<path d="M13 1C13 0.447715 12.5523 0 12 0C11.4477 0 11 0.447715 11 1V3C11 3.55228 11.4477 4 12 4C12.5523 4 13 3.55228 13 3V1Z" fill="var(--color, currentColor)"/>
<path fill-rule="evenodd" clip-rule="evenodd" d="M4.70711 20.7071L20.7071 4.70711C21.0976 4.31658 21.0976 3.68342 20.7071 3.29289C20.3166 2.90237 19.6834 2.90237 19.2929 3.29289L19.0785 3.50726L19.0729 3.51286L17.6529 4.93286L17.6473 4.93849L15.4764 7.10934C14.4959 6.41131 13.2953 6 12 6C8.68629 6 6 8.68629 6 12C6 13.2952 6.41127 14.4958 7.10933 15.4765L3.29289 19.2929C2.90237 19.6834 2.90237 20.3166 3.29289 20.7071C3.68342 21.0976 4.31658 21.0976 4.70711 20.7071ZM8.55368 14.0321L14.0321 8.55367C13.4365 8.20157 12.7423 8 12 8C9.79086 8 8 9.79086 8 12C8 12.7424 8.2016 13.4366 8.55368 14.0321Z" fill="var(--color, currentColor)"/>
<path d="M20.3807 13.8265C20.5528 13.6993 20.7611 13.6306 20.9751 13.6306H21C21.2812 13.6306 21.5495 13.749 21.7389 13.9568C21.9284 14.1646 22.0216 14.4426 21.9958 14.7226C21.8557 16.2385 21.2868 17.6832 20.3556 18.8875C19.4244 20.0919 18.1695 21.0061 16.7377 21.5233C15.3059 22.0405 13.7565 22.1392 12.2706 21.8079C11.1712 21.5627 10.1402 21.0897 9.2423 20.4241C8.79861 20.0952 8.70552 19.469 9.03439 19.0253C9.36325 18.5816 9.98954 18.4885 10.4332 18.8173C11.1071 19.3168 11.8808 19.6718 12.7059 19.8558C13.8209 20.1044 14.9838 20.0304 16.0583 19.6422C17.1328 19.2541 18.0746 18.568 18.7734 17.6642C19.063 17.2895 19.306 16.8839 19.4987 16.4563C18.7854 16.6594 18.0359 16.7378 17.2768 16.6812C16.1399 16.5964 15.0533 16.2129 14.1227 15.579C13.6662 15.2682 13.5482 14.6461 13.8591 14.1896C14.17 13.7331 14.792 13.6151 15.2485 13.926C15.8909 14.3635 16.6409 14.6282 17.4255 14.6868C18.486 14.7658 19.5193 14.4632 20.3807 13.8265Z" fill="var(--color, currentColor)"/>
<path d="M0 12C0 11.4477 0.447715 11 1 11H3C3.55228 11 4 11.4477 4 12C4 12.5523 3.55228 13 3 13H1C0.447715 13 0 12.5523 0 12Z" fill="var(--color, currentColor)"/>
<path d="M3.51289 3.51286C3.90342 3.12234 4.53658 3.12234 4.92711 3.51286L6.34711 4.93286C6.73763 5.32339 6.73763 5.95655 6.34711 6.34708C5.95658 6.7376 5.32342 6.7376 4.93289 6.34708L3.51289 4.92708C3.12237 4.53655 3.12237 3.90339 3.51289 3.51286Z" fill="var(--color, currentColor)"/>
</svg>
