<svg width="24" height="24" viewBox="0 0 24 24" xmlns="http://www.w3.org/2000/svg">
<path d="M18 21V19C18 17.9391 17.5786 16.9217 16.8284 16.1716C16.0783 15.4214 15.0609 15 14 15H7C5.93913 15 4.92172 15.4214 4.17157 16.1716C3.42143 16.9217 3 17.9391 3 19V21" stroke="var(--color, currentColor)" stroke-width="2" stroke-linecap="round" stroke-linejoin="round"/>
<path d="M20.1865 3C21.3477 4.1936 22 5.81225 22 7.5C22 9.18775 21.3477 10.8064 20.1865 12M18 5.24682C18.5806 5.84362 18.9068 6.65294 18.9068 7.49682C18.9068 8.34069 18.5806 9.15002 18 9.74682" stroke="var(--color, currentColor)" stroke-width="2" stroke-linecap="round" stroke-linejoin="round"/>
<path d="M10.5 11C12.7091 11 14.5 9.20914 14.5 7C14.5 4.79086 12.7091 3 10.5 3C8.29086 3 6.5 4.79086 6.5 7C6.5 9.20914 8.29086 11 10.5 11Z" stroke="var(--color, currentColor)" stroke-width="2" stroke-linecap="round" stroke-linejoin="round"/>
</svg>
