<svg height="24" viewBox="0 0 24 24" width="24" xmlns="http://www.w3.org/2000/svg">
    <path
        d="m12 1.8964844c-.5156 0-1.023356.1337587-1.472656.3867187-.4493.25295-.8243871.6177538-1.0917971 1.0585938l.8535151.5175781-.8574214-.5136719-8.46874998 14.1406249-.00976562.013672c-.261948.4536-.39892363.968287-.40039062 1.492188-.00146601.5238.13317412 1.03904.39257812 1.49414.2594.4551.6344675.83391 1.0859375 1.09961.45147.265599.9644712.408262 1.4882812.414062h16.9511718.009766c.5238-.0058 1.036781-.148463 1.488281-.414062.4515-.2657.826537-.64451 1.085938-1.09961.259399-.4551.394078-.970341.392578-1.49414-.0015-.523901-.138491-1.038588-.400391-1.492188l-.009766-.013672-8.46875-14.1406249-.003906-.0039062c-.2674-.44084-.642497-.8056438-1.091797-1.0585938-.4493-.25296-.957056-.3867187-1.472656-.3867187zm0 6.1035156c.5523 0 1 .44772 1 1v4c0 .5523-.4477 1-1 1s-1-.4477-1-1v-4c0-.55228.4477-1 1-1zm0 8h.009766c.5523 0 1 .4477 1 1s-.4477 1-1 1h-.009766c-.5523 0-1-.4477-1-1s.4477-1 1-1z"
        fill="var(--color, currentColor)" />
</svg>